<svg width="1153" height="1066" viewBox="0 0 1153 1066" fill="none" xmlns="http://www.w3.org/2000/svg">
  <g style="mix-blend-mode:color-dodge">
  <path d="M833.228 484.85H946.554L986.423 464.23H1043.95L1073.85 501.455H1238.24L1272.74 482.846H1371.9" stroke="#999999" stroke-width="0.904074" stroke-miterlimit="10"/>
  <path d="M1077.61 575.273H926.031L891.518 593.882H833.228" stroke="#999999" stroke-width="0.904074" stroke-miterlimit="10"/>
  <path d="M1077.41 579.182C1079.57 579.182 1081.32 577.432 1081.32 575.272C1081.32 573.113 1079.57 571.362 1077.41 571.362C1075.25 571.362 1073.5 573.113 1073.5 575.272C1073.5 577.432 1075.25 579.182 1077.41 579.182Z" fill="white" fill-opacity="0.24"/>
  <path d="M834.479 579.747H892.776L927.282 561.138H1082.57L1105.24 543.245H1183.14L1204.63 560.204" stroke="#999999" stroke-width="0.904074" stroke-miterlimit="10"/>
  <path d="M1032.7 434.193H1090.99L1125.5 415.584H1280.79L1300.92 399.703" stroke="#999999" stroke-width="0.904074" stroke-miterlimit="10"/>
  <path d="M1139.49 720.935H1217.4L1236.34 735.889" stroke="#999999" stroke-width="0.904074" stroke-miterlimit="10"/>
  <path d="M1106.88 736.833H1184.78L1203.73 751.787" stroke="#999999" stroke-width="0.904074" stroke-miterlimit="10"/>
  <path d="M1038.97 450.096H1097.26L1131.78 431.487H1287.07L1307.2 415.598" stroke="#999999" stroke-width="0.904074" stroke-miterlimit="10"/>
  <path d="M518.12 396.198V262.38L499.037 228.733V77.3311L482.749 57.7202" stroke="#999999" stroke-width="0.904074" stroke-miterlimit="10"/>
  <path d="M485.476 55.6787C485.047 55.1615 484.474 54.7833 483.83 54.5917C483.186 54.4001 482.499 54.4038 481.857 54.6024C481.215 54.801 480.646 55.1856 480.223 55.7074C479.799 56.2293 479.54 56.8649 479.478 57.5341C479.416 58.2032 479.553 58.8758 479.873 59.4668C480.193 60.0577 480.682 60.5405 481.276 60.854C481.871 61.1675 482.545 61.2977 483.213 61.228C483.882 61.1584 484.514 60.892 485.031 60.4628C485.725 59.8872 486.161 59.0599 486.244 58.1628C486.328 57.2656 486.051 56.3721 485.476 55.6787Z" fill="white" fill-opacity="0.24"/>
  <path d="M499.06 51.6018L515.34 71.2202V222.615L534.432 256.262V398.638" stroke="#999999" stroke-width="0.904074" stroke-miterlimit="10"/>
  <path d="M496.558 53.9093C496.129 53.3922 495.863 52.7594 495.793 52.091C495.724 51.4225 495.854 50.7484 496.167 50.154C496.481 49.5595 496.963 49.0714 497.554 48.7513C498.145 48.4312 498.818 48.2935 499.487 48.3556C500.156 48.4178 500.792 48.6771 501.314 49.1006C501.836 49.5241 502.22 50.0928 502.419 50.7348C502.617 51.3769 502.621 52.0634 502.429 52.7075C502.238 53.3517 501.86 53.9246 501.342 54.3537C500.648 54.9272 499.755 55.2024 498.859 55.1191C497.962 55.0358 497.135 54.6008 496.558 53.9093Z" fill="white" fill-opacity="0.24"/>
  <path d="M435.902 783.558H298.649L264.136 802.167H108.846L88.7152 818.056" stroke="#999999" stroke-width="0.904074" stroke-miterlimit="10"/>
  <path d="M86.749 815.275C86.2208 815.691 85.8277 816.254 85.6196 816.893C85.4115 817.532 85.3978 818.219 85.58 818.866C85.7622 819.513 86.1321 820.091 86.6431 820.528C87.1541 820.964 87.7833 821.24 88.4508 821.319C89.1184 821.398 89.7943 821.277 90.3933 820.972C90.9922 820.667 91.4871 820.191 91.8154 819.604C92.1438 819.018 92.2908 818.347 92.2379 817.677C92.1849 817.007 91.9343 816.368 91.5179 815.84C90.959 815.135 90.1436 814.679 89.25 814.573C88.3564 814.468 87.4573 814.72 86.749 815.275Z" fill="white" fill-opacity="0.24"/>
  <path d="M82.4396 802.152L102.57 786.263H257.868L292.373 767.654H438.411" stroke="#999999" stroke-width="0.904074" stroke-miterlimit="10"/>
  <path d="M84.6846 804.711C84.1567 805.127 83.5175 805.376 82.8478 805.429C82.178 805.481 81.5079 805.333 80.922 805.005C80.336 804.676 79.8606 804.182 79.5557 803.583C79.2508 802.985 79.1302 802.309 79.2091 801.642C79.288 800.975 79.5629 800.346 79.999 799.835C80.4351 799.324 81.0129 798.954 81.6594 798.771C82.3058 798.589 82.9918 798.602 83.6309 798.809C84.2699 799.016 84.8332 799.408 85.2497 799.935C85.807 800.644 86.0605 801.544 85.9546 802.44C85.8487 803.335 85.392 804.152 84.6846 804.711Z" fill="white" fill-opacity="0.24"/>
  <path d="M1014.27 517.692C1016.15 517.692 1017.67 516.171 1017.67 514.294C1017.67 512.418 1016.15 510.896 1014.27 510.896C1012.39 510.896 1010.87 512.418 1010.87 514.294C1010.87 516.171 1012.39 517.692 1014.27 517.692Z" fill="white" fill-opacity="0.24"/>
  <path d="M1135.9 651.005H984.321L949.816 632.396H833.228" stroke="#999999" stroke-width="0.904074" stroke-miterlimit="10"/>
  <path d="M1135.71 654.913C1137.87 654.913 1139.62 653.163 1139.62 651.003C1139.62 648.844 1137.87 647.093 1135.71 647.093C1133.55 647.093 1131.8 648.844 1131.8 651.003C1131.8 653.163 1133.55 654.913 1135.71 654.913Z" fill="white" fill-opacity="0.24"/>
  <path d="M1175.75 664.724H989.339L954.834 646.107H838.246" stroke="#999999" stroke-width="0.904074" stroke-miterlimit="10"/>
  <path d="M1090.73 489.198C1091.17 489.708 1091.75 490.076 1092.4 490.257C1093.04 490.437 1093.73 490.421 1094.37 490.212C1095.01 490.002 1095.57 489.608 1095.98 489.078C1096.4 488.549 1096.65 487.909 1096.7 487.239C1096.75 486.569 1096.6 485.899 1096.27 485.314C1095.94 484.728 1095.44 484.254 1094.84 483.951C1094.24 483.648 1093.56 483.529 1092.9 483.611C1092.23 483.692 1091.6 483.969 1091.09 484.407C1090.41 484.994 1089.99 485.829 1089.92 486.728C1089.85 487.626 1090.14 488.515 1090.73 489.198Z" fill="white" fill-opacity="0.24"/>
  <path d="M833.228 429.279H1070.56L1118.92 488.835H1202.81" stroke="#999999" stroke-width="0.904074" stroke-miterlimit="10"/>
  <path d="M711.178 672.046V761.949L672.273 808.81V883.841V970.85" stroke="#999999" stroke-width="0.904074" stroke-miterlimit="10"/>
  <path d="M672.273 974.076C674.149 974.076 675.671 972.555 675.671 970.678C675.671 968.802 674.149 967.28 672.273 967.28C670.396 967.28 668.875 968.802 668.875 970.678C668.875 972.555 670.396 974.076 672.273 974.076Z" fill="white" fill-opacity="0.24"/>
  <path d="M689.247 672.046V761.949L650.341 808.81V883.841V940.474L624.402 971.717V1102.94" stroke="#999999" stroke-width="0.904074" stroke-miterlimit="10"/>
  <path d="M669.794 672.046V754.287L631.868 799.965V871.139V920.29L598.184 960.86L595.095 1070.98" stroke="#999999" stroke-width="0.904074" stroke-miterlimit="10"/>
  <path d="M650.831 672.041V741.549" stroke="#999999" stroke-width="0.904074" stroke-miterlimit="10"/>
  <path d="M647.433 741.366C647.433 742.038 647.632 742.695 648.006 743.254C648.379 743.813 648.91 744.248 649.531 744.506C650.152 744.763 650.835 744.83 651.494 744.699C652.153 744.568 652.758 744.244 653.234 743.769C653.709 743.294 654.032 742.688 654.164 742.029C654.295 741.37 654.227 740.687 653.97 740.066C653.713 739.445 653.278 738.914 652.719 738.541C652.16 738.168 651.503 737.969 650.831 737.969C649.93 737.969 649.066 738.327 648.428 738.964C647.791 739.601 647.433 740.465 647.433 741.366Z" fill="white" fill-opacity="0.24"/>
  <path d="M629.57 672.041V767.014" stroke="#999999" stroke-width="0.904074" stroke-miterlimit="10"/>
  <path d="M626.172 766.848C626.174 767.52 626.374 768.176 626.749 768.734C627.123 769.291 627.654 769.726 628.275 769.982C628.896 770.238 629.579 770.304 630.238 770.172C630.896 770.04 631.501 769.716 631.976 769.24C632.45 768.765 632.773 768.159 632.903 767.501C633.034 766.842 632.966 766.159 632.709 765.538C632.451 764.918 632.016 764.388 631.457 764.015C630.899 763.642 630.242 763.443 629.57 763.443C629.123 763.443 628.681 763.531 628.268 763.702C627.856 763.873 627.481 764.124 627.165 764.44C626.849 764.757 626.599 765.132 626.429 765.545C626.259 765.958 626.172 766.401 626.172 766.848Z" fill="white" fill-opacity="0.24"/>
  <path d="M833.228 461.911H930.717" stroke="#999999" stroke-width="0.904074" stroke-miterlimit="10"/>
  <path d="M930.552 465.308C931.226 465.309 931.885 465.111 932.446 464.738C933.007 464.364 933.444 463.833 933.703 463.211C933.962 462.589 934.031 461.904 933.9 461.243C933.769 460.582 933.446 459.974 932.97 459.497C932.494 459.02 931.887 458.695 931.226 458.563C930.566 458.431 929.88 458.498 929.258 458.756C928.635 459.013 928.103 459.45 927.728 460.01C927.354 460.57 927.154 461.229 927.154 461.902C927.154 462.804 927.512 463.669 928.149 464.308C928.786 464.946 929.65 465.306 930.552 465.308Z" fill="white" fill-opacity="0.24"/>
  <path d="M572.433 672.046V769.927L595.004 797.11V917.058" stroke="#999999" stroke-width="0.904074" stroke-miterlimit="10"/>
  <path d="M591.607 916.907C591.605 917.582 591.804 918.241 592.177 918.802C592.551 919.363 593.083 919.801 593.705 920.06C594.328 920.318 595.013 920.386 595.674 920.255C596.336 920.124 596.943 919.799 597.42 919.323C597.897 918.846 598.221 918.239 598.352 917.577C598.483 916.916 598.415 916.231 598.157 915.608C597.898 914.986 597.46 914.454 596.899 914.08C596.338 913.707 595.679 913.508 595.005 913.51C594.558 913.51 594.116 913.597 593.704 913.768C593.292 913.939 592.917 914.189 592.602 914.505C592.286 914.82 592.036 915.195 591.865 915.607C591.695 916.019 591.607 916.461 591.607 916.907Z" fill="white" fill-opacity="0.24"/>
  <path d="M590.288 672.046V748.78L614.201 777.582L613.199 832.083" stroke="#999999" stroke-width="0.904074" stroke-miterlimit="10"/>
  <path d="M609.809 831.849C609.797 832.521 609.984 833.182 610.348 833.747C610.711 834.312 611.234 834.757 611.85 835.025C612.467 835.293 613.148 835.372 613.81 835.253C614.471 835.133 615.082 834.821 615.566 834.354C616.049 833.887 616.383 833.288 616.526 832.631C616.669 831.975 616.614 831.29 616.368 830.665C616.122 830.04 615.696 829.501 615.144 829.118C614.592 828.735 613.939 828.524 613.267 828.512C612.821 828.504 612.377 828.584 611.962 828.747C611.546 828.911 611.167 829.154 610.846 829.464C610.525 829.774 610.268 830.144 610.09 830.554C609.912 830.963 609.816 831.403 609.809 831.849Z" fill="white" fill-opacity="0.24"/>
  <path d="M610.615 672.041V722.156" stroke="#999999" stroke-width="0.904074" stroke-miterlimit="10"/>
  <path d="M610.615 725.388C612.491 725.388 614.013 723.866 614.013 721.99C614.013 720.113 612.491 718.592 610.615 718.592C608.738 718.592 607.217 720.113 607.217 721.99C607.217 723.866 608.738 725.388 610.615 725.388Z" fill="white" fill-opacity="0.24"/>
  <path d="M630.746 411.446V284.838L669.651 237.985V162.954V106.321L695.59 75.078V-56.1484" stroke="#999999" stroke-width="0.904074" stroke-miterlimit="10"/>
  <path d="M669.161 308.813C671.038 308.813 672.559 307.292 672.559 305.415C672.559 303.539 671.038 302.017 669.161 302.017C667.285 302.017 665.763 303.539 665.763 305.415C665.763 307.292 667.285 308.813 669.161 308.813Z" fill="white" fill-opacity="0.24"/>
  <path d="M690.422 411.447V279.783" stroke="#999999" stroke-width="0.904074" stroke-miterlimit="10"/>
  <path d="M690.422 283.348C692.299 283.348 693.82 281.826 693.82 279.95C693.82 278.073 692.299 276.552 690.422 276.552C688.545 276.552 687.024 278.073 687.024 279.95C687.024 281.826 688.545 283.348 690.422 283.348Z" fill="white" fill-opacity="0.24"/>
  <path d="M741.939 281.759V78.418" stroke="#999999" stroke-width="0.904074" stroke-miterlimit="10"/>
  <path d="M741.939 81.988C743.816 81.988 745.337 80.4668 745.337 78.5902C745.337 76.7136 743.816 75.1924 741.939 75.1924C740.063 75.1924 738.541 76.7136 738.541 78.5902C738.541 80.4668 740.063 81.988 741.939 81.988Z" fill="white" fill-opacity="0.24"/>
  <path d="M748.795 419.185V277.23L724.988 248.556V121.85" stroke="#999999" stroke-width="0.904074" stroke-miterlimit="10"/>
  <path d="M724.988 125.42C726.864 125.42 728.386 123.899 728.386 122.022C728.386 120.146 726.864 118.625 724.988 118.625C723.111 118.625 721.59 120.146 721.59 122.022C721.59 123.899 723.111 125.42 724.988 125.42Z" fill="white" fill-opacity="0.24"/>
  <path d="M729.704 411.446V298.015L705.791 269.213L706.793 214.712" stroke="#999999" stroke-width="0.904074" stroke-miterlimit="10"/>
  <path d="M710.199 214.938C710.212 214.265 710.025 213.602 709.662 213.035C709.298 212.467 708.775 212.021 708.158 211.751C707.54 211.481 706.857 211.4 706.193 211.519C705.53 211.638 704.917 211.951 704.432 212.418C703.946 212.886 703.611 213.487 703.467 214.145C703.323 214.803 703.378 215.489 703.624 216.116C703.871 216.743 704.298 217.283 704.851 217.668C705.404 218.052 706.059 218.264 706.733 218.276C707.18 218.285 707.624 218.206 708.04 218.043C708.456 217.88 708.836 217.636 709.158 217.326C709.48 217.016 709.738 216.646 709.916 216.236C710.095 215.826 710.191 215.385 710.199 214.938Z" fill="white" fill-opacity="0.24"/>
  <path d="M734.902 410.875V297.444L710.982 268.641" stroke="#999999" stroke-width="0.904074" stroke-miterlimit="10"/>
  <path d="M704.367 318.419C706.244 318.419 707.765 316.898 707.765 315.021C707.765 313.145 706.244 311.623 704.367 311.623C702.491 311.623 700.97 313.145 700.97 315.021C700.97 316.898 702.491 318.419 704.367 318.419Z" fill="white" fill-opacity="0.24"/>
  <path d="M833.228 550.885H884.715" stroke="#999999" stroke-width="0.904074" stroke-miterlimit="10"/>
  <path d="M884.542 554.285C886.418 554.285 887.94 552.763 887.94 550.887C887.94 549.01 886.418 547.489 884.542 547.489C882.665 547.489 881.144 549.01 881.144 550.887C881.144 552.763 882.665 554.285 884.542 554.285Z" fill="white" fill-opacity="0.24"/>
  <path d="M1008.37 609.32H1059.86" stroke="#999999" stroke-width="0.904074" stroke-miterlimit="10"/>
  <path d="M1059.69 612.717C1061.57 612.717 1063.09 611.196 1063.09 609.319C1063.09 607.442 1061.57 605.921 1059.69 605.921C1057.81 605.921 1056.29 607.442 1056.29 609.319C1056.29 611.196 1057.81 612.717 1059.69 612.717Z" fill="white" fill-opacity="0.24"/>
  <path d="M833.228 532.939H995.637" stroke="#999999" stroke-width="0.904074" stroke-miterlimit="10"/>
  <path d="M995.472 536.339C996.146 536.34 996.805 536.142 997.366 535.769C997.927 535.395 998.364 534.864 998.623 534.242C998.882 533.62 998.951 532.935 998.82 532.274C998.69 531.613 998.366 531.005 997.89 530.528C997.414 530.051 996.807 529.726 996.146 529.594C995.486 529.462 994.801 529.529 994.178 529.787C993.555 530.044 993.023 530.481 992.648 531.041C992.274 531.601 992.074 532.26 992.074 532.933C992.073 533.38 992.16 533.823 992.331 534.236C992.501 534.649 992.751 535.025 993.066 535.341C993.382 535.657 993.757 535.908 994.17 536.079C994.582 536.251 995.025 536.339 995.472 536.339Z" fill="white" fill-opacity="0.24"/>
  <path d="M1115.94 593.911C1117.82 593.911 1119.34 592.39 1119.34 590.514C1119.34 588.637 1117.82 587.116 1115.94 587.116C1114.06 587.116 1112.54 588.637 1112.54 590.514C1112.54 592.39 1114.06 593.911 1115.94 593.911Z" fill="white" fill-opacity="0.24"/>
  <path d="M595.193 402.558V214.466L576.848 192.361V116.411L594.236 95.4669V18.3494" stroke="#999999" stroke-width="0.904074" stroke-miterlimit="10"/>
  <path d="M598.146 18.5456C598.146 17.7719 597.917 17.0157 597.487 16.3725C597.057 15.7293 596.446 15.2281 595.731 14.9324C595.016 14.6367 594.229 14.5597 593.47 14.7112C592.712 14.8627 592.015 15.2358 591.468 15.7834C590.922 16.331 590.55 17.0284 590.4 17.7874C590.25 18.5464 590.329 19.3329 590.626 20.0472C590.923 20.7616 591.425 21.3717 592.069 21.8004C592.713 22.2291 593.47 22.4572 594.244 22.4558C595.279 22.4538 596.272 22.0409 597.004 21.3078C597.735 20.5747 598.146 19.5813 598.146 18.5456Z" fill="white" fill-opacity="0.24"/>
  <path d="M586.408 406.225V218.133L568.063 196.028V123.792" stroke="#999999" stroke-width="0.904074" stroke-miterlimit="10"/>
  <path d="M571.973 123.989C571.973 123.215 571.744 122.459 571.314 121.815C570.884 121.172 570.273 120.671 569.558 120.375C568.843 120.08 568.056 120.003 567.297 120.154C566.539 120.306 565.842 120.679 565.295 121.226C564.749 121.774 564.377 122.471 564.227 123.23C564.077 123.989 564.156 124.776 564.453 125.49C564.75 126.204 565.252 126.815 565.896 127.243C566.54 127.672 567.297 127.9 568.071 127.899C568.584 127.899 569.092 127.797 569.566 127.601C570.04 127.404 570.47 127.116 570.833 126.753C571.195 126.39 571.483 125.959 571.678 125.484C571.874 125.01 571.974 124.502 571.973 123.989Z" fill="white" fill-opacity="0.24"/>
  <path d="M745.111 308.392L762.499 287.447V210.33" stroke="#999999" stroke-width="0.904074" stroke-miterlimit="10"/>
  <path d="M762.499 214.433C764.659 214.433 766.409 212.682 766.409 210.523C766.409 208.363 764.659 206.613 762.499 206.613C760.34 206.613 758.589 208.363 758.589 210.523C758.589 212.682 760.34 214.433 762.499 214.433Z" fill="white" fill-opacity="0.24"/>
  <path d="M687.401 214.819L704.789 193.875V161.403" stroke="#999999" stroke-width="0.904074" stroke-miterlimit="10"/>
  <path d="M704.789 165.509C706.949 165.509 708.699 163.759 708.699 161.599C708.699 159.44 706.949 157.689 704.789 157.689C702.63 157.689 700.879 159.44 700.879 161.599C700.879 163.759 702.63 165.509 704.789 165.509Z" fill="white" fill-opacity="0.24"/>
  <path d="M593.309 88.8371L610.698 67.8927V35.4214" stroke="#999999" stroke-width="0.904074" stroke-miterlimit="10"/>
  <path d="M610.698 39.5278C612.857 39.5278 614.608 37.7771 614.608 35.6176C614.608 33.4581 612.857 31.7075 610.698 31.7075C608.538 31.7075 606.788 33.4581 606.788 35.6176C606.788 37.7771 608.538 39.5278 610.698 39.5278Z" fill="white" fill-opacity="0.24"/>
  <path d="M585.436 273.531L568.048 252.587V220.115" stroke="#999999" stroke-width="0.904074" stroke-miterlimit="10"/>
  <path d="M568.048 224.213C570.207 224.213 571.958 222.462 571.958 220.302C571.958 218.143 570.207 216.392 568.048 216.392C565.888 216.392 564.138 218.143 564.138 220.302C564.138 222.462 565.888 224.213 568.048 224.213Z" fill="white" fill-opacity="0.24"/>
  <path d="M559.263 668.95V771.427L575.235 790.669" stroke="#999999" stroke-width="0.904074" stroke-miterlimit="10"/>
  <path d="M572.109 793.011C572.603 793.606 573.262 794.041 574.003 794.262C574.744 794.482 575.534 794.478 576.273 794.249C577.012 794.02 577.666 793.578 578.153 792.978C578.641 792.377 578.939 791.646 579.011 790.876C579.082 790.106 578.924 789.332 578.556 788.652C578.188 787.972 577.626 787.416 576.942 787.056C576.258 786.695 575.483 786.545 574.714 786.624C573.944 786.704 573.216 787.01 572.621 787.504C571.824 788.167 571.323 789.119 571.227 790.152C571.131 791.184 571.448 792.212 572.109 793.011Z" fill="white" fill-opacity="0.24"/>
  <path d="M534.801 614.165H353.586" stroke="#999999" stroke-width="0.904074" stroke-miterlimit="10"/>
  <path d="M353.76 617.561C355.636 617.561 357.157 616.04 357.157 614.163C357.157 612.287 355.636 610.765 353.76 610.765C351.883 610.765 350.362 612.287 350.362 614.163C350.362 616.04 351.883 617.561 353.76 617.561Z" fill="white" fill-opacity="0.24"/>
  <path d="M222.089 476.225H373.664L408.177 494.834H524.765" stroke="#999999" stroke-width="0.904074" stroke-miterlimit="10"/>
  <path d="M222.285 480.134C224.444 480.134 226.195 478.384 226.195 476.224C226.195 474.065 224.444 472.314 222.285 472.314C220.125 472.314 218.375 474.065 218.375 476.224C218.375 478.384 220.125 480.134 222.285 480.134Z" fill="white" fill-opacity="0.24"/>
  <path d="M105.734 179.514L258.952 282.963L276.461 317.416L372.308 382.125" stroke="#999999" stroke-width="0.904074" stroke-miterlimit="10"/>
  <path d="M103.708 182.86C103.067 182.427 102.568 181.814 102.276 181.098C101.983 180.381 101.91 179.594 102.065 178.836C102.22 178.078 102.596 177.383 103.146 176.839C103.696 176.295 104.395 175.927 105.154 175.78C105.914 175.633 106.7 175.715 107.413 176.015C108.126 176.316 108.734 176.821 109.16 177.467C109.586 178.113 109.811 178.87 109.806 179.644C109.801 180.418 109.567 181.172 109.132 181.813C108.551 182.67 107.654 183.262 106.637 183.458C105.62 183.655 104.567 183.44 103.708 182.86Z" fill="white" fill-opacity="0.24"/>
  <path d="M317.747 322.621L402.075 379.548L417.497 416.374" stroke="#999999" stroke-width="0.904074" stroke-miterlimit="10"/>
  <path d="M315.728 325.966C315.087 325.534 314.588 324.921 314.294 324.205C314.001 323.49 313.927 322.703 314.081 321.945C314.234 321.187 314.61 320.491 315.159 319.947C315.708 319.402 316.407 319.032 317.166 318.885C317.926 318.737 318.712 318.818 319.425 319.117C320.138 319.416 320.747 319.92 321.174 320.566C321.601 321.211 321.826 321.968 321.823 322.742C321.819 323.515 321.586 324.27 321.153 324.911C320.866 325.337 320.499 325.703 320.071 325.986C319.643 326.27 319.163 326.466 318.659 326.564C318.156 326.662 317.637 326.66 317.134 326.557C316.631 326.454 316.154 326.254 315.728 325.966Z" fill="white" fill-opacity="0.24"/>
  <path d="M4.09399 446.607H190.499L225.012 465.216H341.6" stroke="#999999" stroke-width="0.904074" stroke-miterlimit="10"/>
  <path d="M4.28976 450.519C6.44926 450.519 8.19988 448.769 8.19988 446.609C8.19988 444.45 6.44926 442.699 4.28976 442.699C2.13026 442.699 0.379639 444.45 0.379639 446.609C0.379639 448.769 2.13026 450.519 4.28976 450.519Z" fill="white" fill-opacity="0.24"/>
  <path d="M534.801 577.563H483.313" stroke="#999999" stroke-width="0.904074" stroke-miterlimit="10"/>
  <path d="M483.487 580.962C485.363 580.962 486.885 579.441 486.885 577.565C486.885 575.688 485.363 574.167 483.487 574.167C481.61 574.167 480.089 575.688 480.089 577.565C480.089 579.441 481.61 580.962 483.487 580.962Z" fill="white" fill-opacity="0.24"/>
  <path d="M534.801 461.284H483.313" stroke="#999999" stroke-width="0.904074" stroke-miterlimit="10"/>
  <path d="M483.487 464.684C485.363 464.684 486.885 463.162 486.885 461.286C486.885 459.409 485.363 457.888 483.487 457.888C481.61 457.888 480.089 459.409 480.089 461.286C480.089 463.162 481.61 464.684 483.487 464.684Z" fill="white" fill-opacity="0.24"/>
  <path d="M642.935 410.898V360.782" stroke="#999999" stroke-width="0.904074" stroke-miterlimit="10"/>
  <path d="M646.333 360.954C646.333 360.282 646.134 359.625 645.761 359.067C645.387 358.508 644.857 358.072 644.236 357.815C643.615 357.558 642.932 357.491 642.273 357.622C641.614 357.753 641.008 358.077 640.533 358.552C640.058 359.027 639.734 359.633 639.603 360.292C639.472 360.951 639.539 361.634 639.796 362.255C640.054 362.876 640.489 363.406 641.048 363.78C641.607 364.153 642.264 364.352 642.936 364.352C643.837 364.352 644.701 363.994 645.338 363.357C645.975 362.72 646.333 361.856 646.333 360.954Z" fill="white" fill-opacity="0.24"/>
  <path d="M805.119 436.657L843.617 399.123" stroke="#999999" stroke-width="0.904074" stroke-miterlimit="10"/>
  <path d="M845.87 401.675C846.354 401.206 846.688 400.604 846.83 399.945C846.972 399.286 846.915 398.6 846.666 397.973C846.418 397.347 845.989 396.808 845.434 396.426C844.879 396.043 844.223 395.834 843.549 395.824C842.875 395.815 842.213 396.005 841.648 396.372C841.082 396.739 840.638 397.265 840.372 397.885C840.106 398.504 840.03 399.188 840.153 399.851C840.276 400.514 840.593 401.125 841.063 401.607C841.375 401.928 841.746 402.184 842.156 402.36C842.566 402.537 843.006 402.631 843.453 402.637C843.899 402.644 844.342 402.562 844.757 402.397C845.172 402.232 845.55 401.987 845.87 401.675Z" fill="white" fill-opacity="0.24"/>
  <path d="M372.557 598.908C374.434 598.908 375.955 597.387 375.955 595.511C375.955 593.634 374.434 592.113 372.557 592.113C370.68 592.113 369.159 593.634 369.159 595.511C369.159 597.387 370.68 598.908 372.557 598.908Z" fill="white" fill-opacity="0.24"/>
  <path d="M157.613 497.553C159.49 497.553 161.011 496.032 161.011 494.156C161.011 492.279 159.49 490.758 157.613 490.758C155.737 490.758 154.216 492.279 154.216 494.156C154.216 496.032 155.737 497.553 157.613 497.553Z" fill="white" fill-opacity="0.24"/>
  <path d="M534.801 518H434.072L407.484 531.818H251.916" stroke="#999999" stroke-width="0.904074" stroke-miterlimit="10"/>
  <path d="M252.082 528.419C251.41 528.419 250.753 528.618 250.194 528.991C249.635 529.365 249.2 529.895 248.942 530.516C248.685 531.137 248.618 531.82 248.749 532.479C248.88 533.139 249.204 533.744 249.679 534.219C250.154 534.694 250.76 535.018 251.419 535.149C252.078 535.28 252.761 535.213 253.382 534.956C254.003 534.699 254.533 534.263 254.907 533.704C255.28 533.145 255.479 532.489 255.479 531.817C255.479 530.915 255.121 530.051 254.484 529.414C253.847 528.777 252.983 528.419 252.082 528.419Z" fill="white" fill-opacity="0.24"/>
  <path d="M731.12 672.046V708.413H773.024V989.399" stroke="#999999" stroke-width="0.904074" stroke-miterlimit="10"/>
  <path d="M769.664 989.233C769.663 989.907 769.861 990.567 770.235 991.128C770.608 991.689 771.14 992.127 771.763 992.386C772.385 992.644 773.071 992.712 773.732 992.581C774.393 992.45 775.001 992.125 775.477 991.649C775.954 991.172 776.279 990.565 776.41 989.903C776.541 989.242 776.473 988.557 776.214 987.934C775.955 987.312 775.518 986.78 774.957 986.406C774.396 986.033 773.736 985.834 773.062 985.835C772.616 985.835 772.174 985.923 771.762 986.094C771.349 986.265 770.975 986.515 770.659 986.831C770.344 987.146 770.093 987.521 769.923 987.933C769.752 988.345 769.664 988.787 769.664 989.233Z" fill="white" fill-opacity="0.24"/>
  <path d="M749.435 672.046V685.623H781.56V794.149" stroke="#999999" stroke-width="0.904074" stroke-miterlimit="10"/>
  <path d="M778.162 793.985C778.164 794.657 778.364 795.313 778.739 795.87C779.113 796.428 779.644 796.863 780.265 797.119C780.886 797.375 781.569 797.441 782.228 797.309C782.886 797.177 783.491 796.853 783.965 796.377C784.44 795.902 784.763 795.296 784.893 794.638C785.024 793.979 784.956 793.296 784.699 792.675C784.441 792.055 784.006 791.525 783.447 791.152C782.889 790.779 782.232 790.58 781.56 790.58C781.113 790.58 780.671 790.668 780.258 790.839C779.845 791.01 779.471 791.261 779.155 791.577C778.839 791.894 778.589 792.269 778.419 792.682C778.249 793.095 778.161 793.538 778.162 793.985Z" fill="white" fill-opacity="0.24"/>
  <path d="M690.377 1019.68V822.778L733.998 770.244L735.347 734.714H756.962V779.819L711.035 835.141V958.766" stroke="#999999" stroke-width="0.904074" stroke-miterlimit="10"/>
  <path d="M693.516 1020.8C694.234 1019.07 693.41 1017.08 691.677 1016.36C689.943 1015.64 687.955 1016.47 687.237 1018.2C686.519 1019.93 687.342 1021.92 689.076 1022.64C690.81 1023.36 692.797 1022.53 693.516 1020.8Z" fill="white" fill-opacity="0.24"/>
  <path d="M707.637 958.594C707.637 959.266 707.836 959.923 708.21 960.482C708.583 961.041 709.114 961.476 709.735 961.733C710.355 961.99 711.039 962.058 711.698 961.927C712.357 961.796 712.962 961.472 713.437 960.997C713.913 960.521 714.236 959.916 714.367 959.257C714.499 958.598 714.431 957.915 714.174 957.294C713.917 956.673 713.481 956.142 712.923 955.769C712.364 955.396 711.707 955.196 711.035 955.196C710.589 955.196 710.147 955.284 709.735 955.455C709.322 955.626 708.948 955.876 708.632 956.191C708.317 956.507 708.066 956.881 707.896 957.294C707.725 957.706 707.637 958.148 707.637 958.594Z" fill="white" fill-opacity="0.24"/>
  <path d="M1010.61 821.166L1157.79 959.142L1269.1 957.01" stroke="#999999" stroke-width="0.904074" stroke-miterlimit="10"/>
  <path d="M1091.15 896.069L1165.65 894.645L1229.62 829.77L1369.49 827.096" stroke="#999999" stroke-width="0.904074" stroke-miterlimit="10"/>
  <path d="M1099.4 995.948L1152.17 994.938L1192.79 1033.01" stroke="#999999" stroke-width="0.904074" stroke-miterlimit="10"/>
  <path d="M312.745 814.485L246.469 875.97L119.424 872.896L46.5627 940.49" stroke="#999999" stroke-width="0.904074" stroke-miterlimit="10"/>
  <path d="M44.3779 937.873C43.8859 938.331 43.5404 938.924 43.3852 939.577C43.23 940.231 43.2719 940.916 43.5058 941.545C43.7397 942.175 44.1549 942.721 44.6991 943.115C45.2433 943.509 45.892 943.732 46.5633 943.758C47.2345 943.783 47.8983 943.609 48.4705 943.257C49.0428 942.905 49.4979 942.392 49.7784 941.781C50.0589 941.171 50.1522 940.491 50.0465 939.828C49.9408 939.164 49.6409 938.547 49.1846 938.054C48.5696 937.396 47.719 937.007 46.8185 936.973C45.918 936.939 45.0407 937.263 44.3779 937.873Z" fill="white" fill-opacity="0.24"/>
  <path d="M221.283 875.357L176.072 917.299L126.724 916.101L95.4131 945.144" stroke="#999999" stroke-width="0.904074" stroke-miterlimit="10"/>
  <path d="M93.2282 942.524C92.7361 942.981 92.3906 943.574 92.2354 944.227C92.0802 944.881 92.1222 945.566 92.356 946.195C92.5899 946.825 93.0051 947.371 93.5493 947.765C94.0935 948.159 94.7422 948.383 95.4135 948.408C96.0848 948.433 96.7485 948.259 97.3207 947.907C97.893 947.555 98.3481 947.042 98.6286 946.431C98.9091 945.821 99.0024 945.141 98.8968 944.478C98.7911 943.815 98.4911 943.197 98.0348 942.704C97.7313 942.377 97.3662 942.112 96.9602 941.925C96.5542 941.738 96.1154 941.634 95.669 941.617C95.2225 941.6 94.7771 941.672 94.3583 941.827C93.9394 941.983 93.5554 942.219 93.2282 942.524Z" fill="white" fill-opacity="0.24"/>
  <path d="M153.907 917.992L152.596 969.441L111.777 1007.31" stroke="#999999" stroke-width="0.904074" stroke-miterlimit="10"/>
  <path d="M109.592 1004.69C109.1 1005.15 108.754 1005.74 108.599 1006.4C108.444 1007.05 108.486 1007.74 108.72 1008.37C108.953 1008.99 109.369 1009.54 109.913 1009.93C110.457 1010.33 111.106 1010.55 111.777 1010.58C112.448 1010.6 113.112 1010.43 113.684 1010.08C114.257 1009.73 114.712 1009.21 114.992 1008.6C115.273 1007.99 115.366 1007.31 115.26 1006.65C115.155 1005.98 114.855 1005.37 114.398 1004.87C113.783 1004.22 112.933 1003.83 112.032 1003.79C111.132 1003.76 110.255 1004.08 109.592 1004.69Z" fill="white" fill-opacity="0.24"/>
  <path d="M1073.69 323.647L1223.64 239.117L1247.87 150.706" stroke="#999999" stroke-width="0.904074" stroke-miterlimit="10"/>
  <path d="M1088.59 348.78L1155.78 310.907L1259.92 338.044L1333.37 296.638" stroke="#999999" stroke-width="0.904074" stroke-miterlimit="10"/>
  <path d="M203.97 679.174H301.467L341.359 693.858" stroke="#999999" stroke-width="0.904074" stroke-miterlimit="10"/>
  <path d="M204.136 682.571C206.012 682.571 207.533 681.05 207.533 679.173C207.533 677.296 206.012 675.775 204.136 675.775C202.259 675.775 200.738 677.296 200.738 679.173C200.738 681.05 202.259 682.571 204.136 682.571Z" fill="white" fill-opacity="0.24"/>
  <path d="M371.879 693.856H251.637" stroke="#999999" stroke-width="0.904074" stroke-miterlimit="10"/>
  <path d="M251.81 697.256C253.687 697.256 255.208 695.735 255.208 693.858C255.208 691.982 253.687 690.46 251.81 690.46C249.934 690.46 248.412 691.982 248.412 693.858C248.412 695.735 249.934 697.256 251.81 697.256Z" fill="white" fill-opacity="0.24"/>
  <path d="M317.31 694.489L294.95 713.422H262.93" stroke="#999999" stroke-width="0.904074" stroke-miterlimit="10"/>
  <path d="M263.104 716.821C264.98 716.821 266.502 715.3 266.502 713.423C266.502 711.546 264.98 710.025 263.104 710.025C261.227 710.025 259.706 711.546 259.706 713.423C259.706 715.3 261.227 716.821 263.104 716.821Z" fill="white" fill-opacity="0.24"/>
  <path d="M196.406 716.655L217.893 733.614H295.794L318.463 715.72H473.753L546.094 655.419" stroke="#999999" stroke-width="0.904074" stroke-miterlimit="10"/>
  <path d="M217.893 742.172H295.794L318.456 724.286H473.753L546.418 662.711" stroke="#999999" stroke-width="0.904074" stroke-miterlimit="10"/>
  <path d="M548.799 665.817C549.388 665.316 549.815 664.652 550.027 663.909C550.239 663.165 550.226 662.375 549.989 661.639C549.753 660.903 549.303 660.254 548.697 659.774C548.092 659.293 547.357 659.003 546.586 658.94C545.816 658.877 545.044 659.043 544.368 659.419C543.692 659.794 543.143 660.362 542.789 661.049C542.436 661.737 542.294 662.514 542.382 663.282C542.47 664.05 542.784 664.775 543.284 665.365C543.616 665.757 544.022 666.08 544.479 666.314C544.937 666.549 545.435 666.692 545.948 666.734C546.46 666.776 546.975 666.717 547.464 666.559C547.954 666.402 548.407 666.15 548.799 665.817Z" fill="white" fill-opacity="0.24"/>
  <path d="M485.506 669.727L464.027 686.686H430.621" stroke="#999999" stroke-width="0.904074" stroke-miterlimit="10"/>
  <path d="M430.817 690.597C432.977 690.597 434.727 688.846 434.727 686.686C434.727 684.527 432.977 682.776 430.817 682.776C428.658 682.776 426.907 684.527 426.907 686.686C426.907 688.846 428.658 690.597 430.817 690.597Z" fill="white" fill-opacity="0.24"/>
  <path d="M894.547 925.293C896.423 925.293 897.945 923.772 897.945 921.896C897.945 920.019 896.423 918.498 894.547 918.498C892.67 918.498 891.149 920.019 891.149 921.896C891.149 923.772 892.67 925.293 894.547 925.293Z" fill="white" fill-opacity="0.24"/>
  <path d="M860.674 917.172V800.026L831.503 756.405V701.897" stroke="#999999" stroke-width="0.904074" stroke-miterlimit="10"/>
  <path d="M864.08 917.006C864.08 917.68 863.88 918.339 863.505 918.899C863.131 919.459 862.598 919.895 861.976 920.153C861.353 920.41 860.668 920.478 860.007 920.346C859.346 920.214 858.74 919.888 858.264 919.411C857.788 918.934 857.464 918.327 857.333 917.666C857.203 917.005 857.271 916.32 857.53 915.698C857.789 915.076 858.227 914.544 858.788 914.171C859.349 913.798 860.008 913.599 860.682 913.601C861.129 913.601 861.571 913.689 861.984 913.86C862.397 914.031 862.771 914.282 863.087 914.599C863.403 914.915 863.653 915.29 863.823 915.704C863.993 916.117 864.081 916.559 864.08 917.006Z" fill="white" fill-opacity="0.24"/>
  <path d="M976.094 1098.2V981.046L946.923 937.424L953.191 784.538" stroke="#999999" stroke-width="0.904074" stroke-miterlimit="10"/>
  <path d="M953.191 1070.57V969.223L931.546 936.706L937.814 783.82" stroke="#999999" stroke-width="0.904074" stroke-miterlimit="10"/>
  <path d="M805.473 922.069V827.097L820.533 788.199" stroke="#999999" stroke-width="0.904074" stroke-miterlimit="10"/>
  <path d="M805.473 925.293C807.35 925.293 808.871 923.772 808.871 921.896C808.871 920.019 807.35 918.498 805.473 918.498C803.596 918.498 802.075 920.019 802.075 921.896C802.075 923.772 803.596 925.293 805.473 925.293Z" fill="white" fill-opacity="0.24"/>
  <path d="M820.533 875.593V758.44L791.354 714.818V660.31" stroke="#999999" stroke-width="0.904074" stroke-miterlimit="10"/>
  <path d="M823.909 875.418C823.909 876.09 823.709 876.747 823.336 877.305C822.962 877.864 822.432 878.3 821.811 878.557C821.19 878.814 820.507 878.881 819.848 878.75C819.189 878.619 818.583 878.296 818.108 877.82C817.633 877.345 817.309 876.74 817.178 876.08C817.047 875.421 817.114 874.738 817.372 874.117C817.629 873.496 818.064 872.966 818.623 872.593C819.182 872.219 819.839 872.02 820.511 872.02C820.957 872.02 821.399 872.108 821.811 872.278C822.223 872.449 822.598 872.7 822.913 873.015C823.229 873.331 823.479 873.705 823.65 874.117C823.821 874.53 823.909 874.971 823.909 875.418Z" fill="white" fill-opacity="0.24"/>
  <path d="M821.181 811.642L840.604 833.446V864.576" stroke="#999999" stroke-width="0.904074" stroke-miterlimit="10"/>
  <path d="M837.206 864.411C837.206 865.083 837.405 865.74 837.779 866.299C838.152 866.857 838.683 867.293 839.303 867.55C839.924 867.807 840.608 867.875 841.267 867.744C841.926 867.612 842.531 867.289 843.006 866.814C843.482 866.338 843.805 865.733 843.936 865.074C844.067 864.415 844 863.731 843.743 863.111C843.486 862.49 843.05 861.959 842.492 861.586C841.933 861.212 841.276 861.013 840.604 861.013C839.703 861.013 838.838 861.371 838.201 862.008C837.564 862.645 837.206 863.51 837.206 864.411Z" fill="white" fill-opacity="0.24"/>
  <path d="M927.772 795.468L890.998 762.22L877.43 709.339" stroke="#999999" stroke-width="0.904074" stroke-miterlimit="10"/>
  <path d="M929.926 792.832C930.425 793.282 930.778 793.871 930.942 794.523C931.106 795.174 931.074 795.86 930.848 796.493C930.622 797.126 930.214 797.678 929.675 798.079C929.135 798.48 928.489 798.712 927.818 798.745C927.147 798.779 926.48 798.613 925.904 798.268C925.327 797.923 924.865 797.415 924.577 796.808C924.289 796.201 924.188 795.522 924.286 794.857C924.384 794.192 924.677 793.571 925.127 793.073C925.732 792.404 926.577 792.003 927.477 791.958C928.377 791.913 929.258 792.227 929.926 792.832Z" fill="white" fill-opacity="0.24"/>
  <path d="M882.899 902.322C882.901 902.996 882.703 903.655 882.329 904.216C881.956 904.777 881.425 905.215 880.802 905.474C880.18 905.733 879.495 905.801 878.834 905.671C878.173 905.54 877.566 905.216 877.089 904.74C876.612 904.264 876.287 903.658 876.155 902.997C876.023 902.336 876.09 901.651 876.347 901.028C876.605 900.406 877.041 899.873 877.601 899.499C878.162 899.124 878.82 898.924 879.494 898.924C880.396 898.924 881.261 899.282 881.899 899.919C882.538 900.556 882.897 901.42 882.899 902.322Z" fill="white" fill-opacity="0.24"/>
  <path d="M914.617 1030.93V913.774" stroke="#999999" stroke-width="0.904074" stroke-miterlimit="10"/>
  <path d="M918.023 1030.75C918.023 1031.42 917.823 1032.08 917.45 1032.64C917.077 1033.2 916.546 1033.63 915.925 1033.89C915.304 1034.15 914.621 1034.22 913.962 1034.08C913.303 1033.95 912.697 1033.63 912.222 1033.15C911.747 1032.68 911.423 1032.07 911.292 1031.42C911.161 1030.76 911.229 1030.07 911.486 1029.45C911.743 1028.83 912.178 1028.3 912.737 1027.93C913.296 1027.55 913.953 1027.35 914.625 1027.35C915.071 1027.35 915.513 1027.44 915.925 1027.61C916.337 1027.78 916.712 1028.03 917.028 1028.35C917.343 1028.67 917.593 1029.04 917.764 1029.45C917.935 1029.86 918.023 1030.31 918.023 1030.75Z" fill="white" fill-opacity="0.24"/>
  <path d="M904.582 1004.02V886.87" stroke="#999999" stroke-width="0.904074" stroke-miterlimit="10"/>
  <path d="M907.719 1005.14C908.437 1003.41 907.614 1001.42 905.88 1000.7C904.146 999.983 902.158 1000.81 901.44 1002.54C900.722 1004.27 901.546 1006.26 903.279 1006.98C905.013 1007.7 907.001 1006.87 907.719 1005.14Z" fill="white" fill-opacity="0.24"/>
  <path d="M840.604 1057.12V848.953" stroke="#999999" stroke-width="0.904074" stroke-miterlimit="10"/>
  <path d="M843.743 1058.25C844.461 1056.52 843.637 1054.53 841.904 1053.81C840.17 1053.09 838.183 1053.92 837.464 1055.65C836.746 1057.38 837.569 1059.37 839.303 1060.09C841.037 1060.81 843.024 1059.98 843.743 1058.25Z" fill="white" fill-opacity="0.24"/>
  <path d="M891.111 835.392L910.534 857.195V888.325" stroke="#999999" stroke-width="0.904074" stroke-miterlimit="10"/>
  <path d="M907.144 888.158C907.144 888.83 907.343 889.487 907.716 890.045C908.09 890.604 908.62 891.039 909.241 891.297C909.862 891.554 910.545 891.621 911.204 891.49C911.864 891.359 912.469 891.035 912.944 890.56C913.419 890.085 913.743 889.48 913.874 888.82C914.005 888.161 913.938 887.478 913.681 886.857C913.424 886.236 912.988 885.706 912.429 885.332C911.87 884.959 911.214 884.76 910.541 884.76C909.64 884.76 908.776 885.118 908.139 885.755C907.502 886.392 907.144 887.256 907.144 888.158Z" fill="white" fill-opacity="0.24"/>
  <path d="M980.163 809L1009.78 809.022L1033.91 829.492" stroke="#999999" stroke-width="0.904074" stroke-miterlimit="10"/>
  <path d="M1031.58 831.97C1032.09 832.404 1032.72 832.677 1033.39 832.754C1034.06 832.83 1034.73 832.707 1035.33 832.4C1035.93 832.093 1036.42 831.616 1036.75 831.029C1037.08 830.442 1037.22 829.771 1037.17 829.101C1037.11 828.431 1036.86 827.793 1036.44 827.267C1036.02 826.74 1035.46 826.349 1034.82 826.144C1034.18 825.938 1033.49 825.926 1032.85 826.11C1032.2 826.294 1031.63 826.666 1031.19 827.178C1030.9 827.518 1030.68 827.912 1030.55 828.337C1030.41 828.762 1030.36 829.21 1030.39 829.655C1030.43 830.1 1030.55 830.533 1030.76 830.93C1030.96 831.328 1031.24 831.681 1031.58 831.97Z" fill="white" fill-opacity="0.24"/>
  <path d="M1111.28 781.221L1027.68 732.371L1001.2 699.787" stroke="#999999" stroke-width="0.904074" stroke-miterlimit="10"/>
  <path d="M1112.86 778.201C1113.44 778.54 1113.91 779.043 1114.2 779.647C1114.49 780.251 1114.6 780.929 1114.51 781.595C1114.42 782.261 1114.13 782.885 1113.69 783.388C1113.24 783.891 1112.66 784.25 1112.01 784.421C1111.36 784.592 1110.67 784.566 1110.04 784.346C1109.4 784.127 1108.84 783.725 1108.44 783.189C1108.03 782.654 1107.79 782.011 1107.75 781.34C1107.71 780.669 1107.87 780.001 1108.21 779.421C1108.43 779.036 1108.73 778.698 1109.09 778.428C1109.44 778.159 1109.85 777.961 1110.28 777.848C1110.71 777.735 1111.16 777.707 1111.6 777.768C1112.05 777.828 1112.47 777.975 1112.86 778.201Z" fill="white" fill-opacity="0.24"/>
  <path d="M1022.16 711.299L1051.32 706.258L1078.77 722.298" stroke="#999999" stroke-width="0.904074" stroke-miterlimit="10"/>
  <path d="M1076.91 725.145C1077.49 725.484 1078.15 725.643 1078.83 725.602C1079.5 725.561 1080.14 725.323 1080.67 724.916C1081.21 724.51 1081.61 723.954 1081.83 723.319C1082.05 722.683 1082.08 721.998 1081.91 721.348C1081.74 720.698 1081.38 720.113 1080.87 719.667C1080.37 719.222 1079.75 718.935 1079.08 718.844C1078.41 718.753 1077.74 718.861 1077.13 719.155C1076.53 719.449 1076.02 719.916 1075.69 720.496C1075.23 721.275 1075.11 722.201 1075.34 723.073C1075.56 723.944 1076.13 724.689 1076.91 725.145Z" fill="white" fill-opacity="0.24"/>
  <path d="M1368.41 623.361H1248.17L1203.42 651.802H1147.51" stroke="#999999" stroke-width="0.904074" stroke-miterlimit="10"/>
  <path d="M1110.74 629.789L1133.09 610.856H1165.11" stroke="#999999" stroke-width="0.904074" stroke-miterlimit="10"/>
  <path d="M815.192 168.084L841.538 140.058V21.9634" stroke="#999999" stroke-width="0.904074" stroke-miterlimit="10"/>
  <path d="M845.448 22.1594C845.448 21.3861 845.219 20.6301 844.789 19.9871C844.36 19.344 843.749 18.8429 843.034 18.5469C842.32 18.251 841.534 18.1735 840.775 18.3244C840.017 18.4753 839.32 18.8477 838.773 19.3945C838.226 19.9414 837.854 20.6381 837.703 21.3966C837.552 22.155 837.63 22.9412 837.926 23.6557C838.221 24.3702 838.723 24.9809 839.366 25.4106C840.009 25.8402 840.765 26.0695 841.538 26.0695C842.052 26.0695 842.56 25.9684 843.034 25.7719C843.509 25.5754 843.94 25.2874 844.303 24.9243C844.666 24.5612 844.954 24.1301 845.15 23.6557C845.347 23.1813 845.448 22.6729 845.448 22.1594Z" fill="white" fill-opacity="0.24"/>
  <path d="M841.538 99.5876L857.849 82.5684V43.9795" stroke="#999999" stroke-width="0.904074" stroke-miterlimit="10"/>
  <path d="M861.759 44.1757C861.759 43.4024 861.53 42.6464 861.1 42.0034C860.671 41.3603 860.06 40.8592 859.345 40.5632C858.631 40.2673 857.845 40.1899 857.086 40.3408C856.328 40.4916 855.631 40.8641 855.084 41.4109C854.537 41.9577 854.165 42.6544 854.014 43.4129C853.863 44.1714 853.941 44.9576 854.237 45.6721C854.533 46.3866 855.034 46.9972 855.677 47.4268C856.32 47.8565 857.076 48.0859 857.849 48.0859C858.886 48.0859 859.881 47.6739 860.614 46.9406C861.347 46.2073 861.759 45.2127 861.759 44.1757Z" fill="white" fill-opacity="0.24"/>
  <path d="M972.011 802.881V887.276L1033.44 951.857" stroke="#999999" stroke-width="0.904074" stroke-miterlimit="10"/>
  <path d="M1030.47 954.403C1031 954.965 1031.69 955.356 1032.44 955.527C1033.2 955.698 1033.98 955.642 1034.71 955.365C1035.43 955.088 1036.05 954.602 1036.5 953.971C1036.95 953.339 1037.19 952.589 1037.21 951.815C1037.23 951.042 1037.02 950.28 1036.61 949.626C1036.2 948.972 1035.6 948.455 1034.89 948.141C1034.19 947.826 1033.4 947.729 1032.64 947.861C1031.88 947.993 1031.17 948.348 1030.61 948.881C1029.86 949.596 1029.43 950.578 1029.4 951.613C1029.37 952.647 1029.76 953.651 1030.47 954.403Z" fill="white" fill-opacity="0.24"/>
  <path d="M1013.41 202.336L1069.86 199.888L1154.31 122.883" stroke="#999999" stroke-width="0.904074" stroke-miterlimit="10"/>
  <path d="M1156.8 125.902C1157.38 125.381 1157.78 124.703 1157.97 123.952C1158.15 123.201 1158.11 122.412 1157.85 121.685C1157.59 120.957 1157.11 120.324 1156.49 119.865C1155.87 119.405 1155.12 119.141 1154.35 119.106C1153.58 119.07 1152.81 119.264 1152.15 119.663C1151.49 120.063 1150.96 120.65 1150.63 121.35C1150.3 122.05 1150.19 122.832 1150.3 123.596C1150.42 124.361 1150.76 125.074 1151.28 125.646C1151.98 126.412 1152.95 126.869 1153.99 126.917C1155.03 126.965 1156.04 126.6 1156.8 125.902Z" fill="white" fill-opacity="0.24"/>
  <path d="M1143.62 680.74L1165.11 697.691H1311.42" stroke="#999999" stroke-width="0.904074" stroke-miterlimit="10"/>
  <path d="M1036.28 249.927L972.478 312.12L936.413 328.017" stroke="#999999" stroke-width="0.904074" stroke-miterlimit="10"/>
  <path d="M1033.78 247.607C1034.26 247.138 1034.87 246.823 1035.53 246.7C1036.19 246.577 1036.88 246.653 1037.49 246.918C1038.11 247.183 1038.64 247.625 1039 248.189C1039.37 248.752 1039.56 249.411 1039.55 250.083C1039.54 250.755 1039.34 251.409 1038.95 251.963C1038.57 252.517 1038.04 252.946 1037.41 253.196C1036.79 253.445 1036.11 253.504 1035.45 253.365C1034.79 253.226 1034.19 252.895 1033.72 252.414C1033.41 252.094 1033.16 251.717 1033 251.302C1032.83 250.888 1032.75 250.444 1032.76 249.998C1032.76 249.552 1032.85 249.111 1033.03 248.7C1033.21 248.29 1033.46 247.919 1033.78 247.607Z" fill="white" fill-opacity="0.24"/>
  <path d="M995.103 270.796L916.38 347.552L906.157 394.85L869.466 430.621" stroke="#999999" stroke-width="0.904074" stroke-miterlimit="10"/>
  <path d="M992.609 268.474C993.091 268.003 993.702 267.685 994.364 267.561C995.027 267.437 995.711 267.512 996.331 267.777C996.95 268.042 997.478 268.485 997.845 269.05C998.213 269.615 998.405 270.276 998.396 270.95C998.388 271.624 998.179 272.281 997.798 272.836C997.416 273.392 996.878 273.822 996.252 274.071C995.626 274.321 994.94 274.379 994.28 274.238C993.621 274.097 993.019 273.764 992.549 273.281C992.237 272.961 991.991 272.584 991.825 272.169C991.66 271.755 991.577 271.311 991.583 270.865C991.588 270.419 991.682 269.978 991.858 269.568C992.034 269.157 992.289 268.786 992.609 268.474Z" fill="white" fill-opacity="0.24"/>
  <path d="M951.767 312.209L953.696 285.479L974.52 265.175" stroke="#999999" stroke-width="0.904074" stroke-miterlimit="10"/>
  <path d="M976.772 267.729C977.253 267.259 977.584 266.658 977.723 266.001C977.863 265.343 977.804 264.659 977.554 264.036C977.305 263.412 976.876 262.876 976.322 262.495C975.768 262.115 975.114 261.908 974.442 261.899C973.77 261.891 973.111 262.082 972.547 262.448C971.984 262.814 971.542 263.339 971.277 263.957C971.012 264.574 970.936 265.256 971.059 265.917C971.181 266.578 971.497 267.187 971.966 267.668C972.277 267.988 972.649 268.243 973.059 268.419C973.469 268.595 973.91 268.689 974.357 268.695C974.803 268.7 975.246 268.618 975.661 268.452C976.075 268.286 976.453 268.04 976.772 267.729Z" fill="white" fill-opacity="0.24"/>
  <path d="M109.599 422.552L149.025 422.952L161.674 413.293" stroke="#999999" stroke-width="0.904074" stroke-miterlimit="10"/>
  <path d="M109.735 425.951C109.063 425.944 108.409 425.737 107.855 425.358C107.3 424.979 106.871 424.444 106.62 423.821C106.37 423.197 106.309 422.514 106.447 421.857C106.585 421.199 106.915 420.597 107.394 420.127C107.874 419.657 108.482 419.339 109.142 419.215C109.802 419.09 110.484 419.164 111.103 419.427C111.721 419.69 112.247 420.13 112.615 420.692C112.983 421.253 113.176 421.912 113.171 422.583C113.167 423.03 113.075 423.472 112.9 423.883C112.725 424.294 112.471 424.667 112.151 424.98C111.832 425.293 111.455 425.54 111.04 425.706C110.625 425.873 110.182 425.956 109.735 425.951Z" fill="white" fill-opacity="0.24"/>
  <path d="M1014.29 80.58L905.388 219.242L884.708 245.574L925.941 235.877L1061.78 62.9204" stroke="#999999" stroke-width="0.904074" stroke-miterlimit="10"/>
  <path d="M1011.5 78.6126C1011.92 78.085 1012.48 77.6923 1013.12 77.4844C1013.76 77.2764 1014.45 77.2624 1015.09 77.4441C1015.74 77.6258 1016.32 77.9952 1016.75 78.5054C1017.19 79.0156 1017.47 79.6439 1017.55 80.3108C1017.63 80.9777 1017.51 81.6534 1017.2 82.2524C1016.9 82.8514 1016.42 83.3469 1015.84 83.6763C1015.25 84.0058 1014.58 84.1543 1013.91 84.1032C1013.24 84.052 1012.61 83.8036 1012.08 83.3891C1011.72 83.114 1011.43 82.7719 1011.21 82.3825C1010.99 81.993 1010.85 81.564 1010.8 81.12C1010.74 80.6761 1010.78 80.2259 1010.9 79.7956C1011.02 79.3653 1011.23 78.9633 1011.5 78.6126Z" fill="white" fill-opacity="0.24"/>
  <path d="M1064.35 65.1488C1064.76 64.6204 1065.01 63.9808 1065.06 63.3107C1065.12 62.6405 1064.97 61.97 1064.64 61.384C1064.31 60.7981 1063.81 60.323 1063.21 60.0188C1062.61 59.7146 1061.94 59.595 1061.27 59.6751C1060.6 59.7552 1059.98 60.0314 1059.46 60.4689C1058.95 60.9063 1058.59 61.4853 1058.4 62.1326C1058.22 62.7798 1058.24 63.4662 1058.45 64.1051C1058.66 64.7439 1059.05 65.3064 1059.58 65.7214C1059.93 65.9977 1060.33 66.2022 1060.76 66.323C1061.19 66.4438 1061.64 66.4786 1062.08 66.4254C1062.52 66.3722 1062.95 66.232 1063.34 66.0129C1063.73 65.7939 1064.07 65.5002 1064.35 65.1488Z" fill="white" fill-opacity="0.24"/>
  <path d="M996.707 213.454L996.73 184.584L1017.72 161.071" stroke="#999999" stroke-width="0.904074" stroke-miterlimit="10"/>
  <path d="M1020.15 163.458C1020.59 162.957 1020.88 162.334 1020.98 161.669C1021.07 161.004 1020.96 160.325 1020.67 159.72C1020.38 159.115 1019.91 158.61 1019.34 158.269C1018.76 157.927 1018.09 157.766 1017.42 157.804C1016.75 157.841 1016.1 158.077 1015.57 158.482C1015.03 158.886 1014.62 159.44 1014.4 160.074C1014.18 160.709 1014.15 161.394 1014.32 162.045C1014.49 162.696 1014.85 163.282 1015.35 163.73C1015.68 164.027 1016.07 164.256 1016.49 164.403C1016.91 164.551 1017.36 164.614 1017.8 164.588C1018.25 164.563 1018.68 164.45 1019.09 164.256C1019.49 164.063 1019.85 163.791 1020.15 163.458Z" fill="white" fill-opacity="0.24"/>
  <path d="M978.234 80.7605L928.148 162.248L894.728 188.059" stroke="#999999" stroke-width="0.904074" stroke-miterlimit="10"/>
  <path d="M975.258 79.1324C975.611 78.5605 976.125 78.106 976.736 77.8262C977.346 77.5464 978.026 77.4538 978.689 77.5603C979.353 77.6668 979.969 77.9675 980.462 78.4244C980.954 78.8813 981.3 79.474 981.456 80.1275C981.612 80.7809 981.57 81.4658 981.337 82.0957C981.103 82.7257 980.689 83.2723 980.145 83.6665C979.601 84.0606 978.952 84.2848 978.281 84.3105C977.61 84.3362 976.946 84.1624 976.373 83.8109C975.992 83.5779 975.66 83.2719 975.397 82.9102C975.135 82.5485 974.946 82.1384 974.843 81.7036C974.739 81.2688 974.722 80.8178 974.794 80.3765C974.865 79.9352 975.023 79.5124 975.258 79.1324Z" fill="white" fill-opacity="0.24"/>
  <path d="M940.82 113.08L879.035 213.583L881.061 265.628L777.552 400.478" stroke="#999999" stroke-width="0.904074" stroke-miterlimit="10"/>
  <path d="M937.837 111.446C938.189 110.874 938.703 110.42 939.314 110.14C939.925 109.86 940.605 109.768 941.268 109.874C941.931 109.981 942.548 110.281 943.041 110.738C943.533 111.195 943.879 111.788 944.035 112.441C944.19 113.095 944.149 113.78 943.916 114.409C943.682 115.039 943.267 115.586 942.723 115.98C942.179 116.374 941.531 116.599 940.859 116.624C940.188 116.65 939.524 116.476 938.952 116.125C938.185 115.651 937.636 114.893 937.427 114.016C937.218 113.139 937.366 112.215 937.837 111.446Z" fill="white" fill-opacity="0.24"/>
  <path d="M906.533 167.626L901.365 139.192L917.797 112.462" stroke="#999999" stroke-width="0.904074" stroke-miterlimit="10"/>
  <path d="M920.607 114.391C920.958 113.819 921.132 113.155 921.106 112.483C921.081 111.812 920.856 111.164 920.462 110.62C920.068 110.076 919.522 109.661 918.892 109.428C918.262 109.194 917.577 109.153 916.923 109.308C916.27 109.464 915.677 109.81 915.22 110.302C914.763 110.795 914.463 111.412 914.356 112.075C914.25 112.738 914.342 113.418 914.622 114.029C914.902 114.64 915.356 115.154 915.928 115.506C916.697 115.978 917.621 116.125 918.498 115.916C919.375 115.707 920.133 115.159 920.607 114.391Z" fill="white" fill-opacity="0.24"/>
  <path d="M1250.37 390.834L1153.03 396.243L1112.35 383.805" stroke="#999999" stroke-width="0.904074" stroke-miterlimit="10"/>
  <path d="M1201.92 378.825L1081.87 385.501L1038.86 416.375L901.124 418.582" stroke="#999999" stroke-width="0.904074" stroke-miterlimit="10"/>
  <path d="M1136.32 381.83L1157.53 361.685L1189.5 359.914" stroke="#999999" stroke-width="0.904074" stroke-miterlimit="10"/>
  <path d="M1085.68 213.032L1113.16 210.207L1136.75 187.213" stroke="#999999" stroke-width="0.904074" stroke-miterlimit="10"/>
  <path d="M1139.34 190.145C1139.89 189.605 1140.27 188.913 1140.43 188.157C1140.59 187.4 1140.53 186.613 1140.24 185.895C1139.95 185.177 1139.46 184.56 1138.82 184.123C1138.18 183.685 1137.43 183.447 1136.66 183.437C1135.88 183.428 1135.13 183.648 1134.48 184.07C1133.83 184.491 1133.32 185.096 1133.02 185.806C1132.71 186.517 1132.62 187.302 1132.76 188.063C1132.91 188.823 1133.27 189.524 1133.81 190.078C1134.17 190.446 1134.6 190.74 1135.07 190.943C1135.54 191.146 1136.05 191.254 1136.56 191.26C1137.07 191.266 1137.58 191.171 1138.06 190.98C1138.54 190.789 1138.97 190.505 1139.34 190.145Z" fill="white" fill-opacity="0.24"/>
  <path d="M1081.05 187.651L1087.22 161.388L1113.48 141.318" stroke="#999999" stroke-width="0.904074" stroke-miterlimit="10"/>
  <path d="M1115.71 144.535C1116.32 144.067 1116.78 143.428 1117.04 142.697C1117.29 141.966 1117.32 141.177 1117.12 140.43C1116.93 139.682 1116.51 139.009 1115.93 138.497C1115.35 137.984 1114.64 137.654 1113.87 137.549C1113.11 137.444 1112.33 137.568 1111.63 137.906C1110.94 138.243 1110.36 138.78 1109.97 139.447C1109.57 140.114 1109.39 140.881 1109.44 141.653C1109.48 142.425 1109.76 143.165 1110.22 143.782C1110.53 144.192 1110.92 144.537 1111.36 144.797C1111.81 145.057 1112.3 145.226 1112.81 145.296C1113.32 145.366 1113.84 145.335 1114.33 145.205C1114.83 145.074 1115.3 144.847 1115.71 144.535Z" fill="white" fill-opacity="0.24"/>
  <path d="M990.432 221.41H1077L1143.24 161.515" stroke="#999999" stroke-width="0.904074" stroke-miterlimit="10"/>
  <path d="M1145.72 164.553C1146.3 164.035 1146.7 163.358 1146.89 162.608C1147.08 161.858 1147.04 161.069 1146.78 160.34C1146.52 159.612 1146.05 158.976 1145.43 158.515C1144.81 158.053 1144.07 157.786 1143.3 157.747C1142.52 157.708 1141.76 157.899 1141.09 158.296C1140.43 158.692 1139.9 159.277 1139.57 159.976C1139.24 160.674 1139.12 161.456 1139.23 162.221C1139.34 162.986 1139.68 163.701 1140.2 164.274C1140.89 165.044 1141.87 165.505 1142.9 165.557C1143.94 165.61 1144.95 165.248 1145.72 164.553Z" fill="white" fill-opacity="0.24"/>
  <path d="M818.951 443.286L880.428 371.118L892.257 317.085L1105.32 109.366" stroke="#999999" stroke-width="0.904074" stroke-miterlimit="10"/>
  <path d="M1107.58 111.911C1108.06 111.442 1108.39 110.841 1108.53 110.183C1108.67 109.526 1108.61 108.842 1108.36 108.218C1108.11 107.594 1107.68 107.058 1107.13 106.678C1106.57 106.298 1105.92 106.09 1105.25 106.082C1104.57 106.074 1103.92 106.265 1103.35 106.631C1102.79 106.997 1102.35 107.522 1102.08 108.14C1101.82 108.757 1101.74 109.439 1101.86 110.1C1101.99 110.76 1102.3 111.37 1102.77 111.851C1103.08 112.171 1103.45 112.426 1103.86 112.602C1104.27 112.778 1104.71 112.872 1105.16 112.877C1105.61 112.883 1106.05 112.8 1106.47 112.635C1106.88 112.469 1107.26 112.223 1107.58 111.911Z" fill="white" fill-opacity="0.24"/>
  <path d="M795.121 417.603L957.501 226.987" stroke="#999999" stroke-width="0.904074" stroke-miterlimit="10"/>
  <path d="M959.979 229.323C960.415 228.811 960.689 228.182 960.766 227.514C960.844 226.847 960.722 226.172 960.416 225.573C960.11 224.975 959.634 224.481 959.047 224.154C958.46 223.826 957.79 223.68 957.12 223.734C956.45 223.788 955.811 224.039 955.284 224.456C954.757 224.872 954.365 225.436 954.159 226.075C953.952 226.714 953.939 227.401 954.122 228.047C954.305 228.694 954.676 229.271 955.188 229.707C955.527 229.998 955.92 230.218 956.345 230.356C956.77 230.494 957.218 230.547 957.663 230.511C958.109 230.475 958.542 230.352 958.94 230.148C959.337 229.944 959.691 229.664 959.979 229.323Z" fill="white" fill-opacity="0.24"/>
  <path d="M785.079 358.89L846.556 286.722L857.698 235.845" stroke="#999999" stroke-width="0.904074" stroke-miterlimit="10"/>
  <path d="M860.983 236.735C861.125 236.078 861.07 235.394 860.824 234.769C860.578 234.144 860.152 233.606 859.6 233.223C859.048 232.84 858.395 232.629 857.723 232.617C857.051 232.605 856.391 232.793 855.826 233.156C855.261 233.519 854.816 234.042 854.548 234.657C854.279 235.273 854.199 235.955 854.318 236.616C854.437 237.277 854.75 237.888 855.216 238.372C855.682 238.856 856.281 239.191 856.937 239.334C857.374 239.429 857.825 239.438 858.264 239.359C858.704 239.28 859.123 239.115 859.499 238.873C859.875 238.632 860.199 238.319 860.454 237.952C860.709 237.585 860.888 237.171 860.983 236.735Z" fill="white" fill-opacity="0.24"/>
  <path d="M432.06 863.877L432.037 892.754L411.048 916.268" stroke="#999999" stroke-width="0.904074" stroke-miterlimit="10"/>
  <path d="M408.63 913.894C408.182 914.396 407.893 915.018 407.8 915.684C407.706 916.349 407.812 917.027 408.104 917.633C408.396 918.238 408.861 918.743 409.44 919.084C410.018 919.425 410.685 919.587 411.356 919.549C412.027 919.511 412.672 919.275 413.209 918.871C413.745 918.467 414.15 917.913 414.372 917.278C414.594 916.644 414.623 915.958 414.455 915.308C414.287 914.657 413.93 914.071 413.429 913.623C413.096 913.326 412.708 913.097 412.286 912.949C411.865 912.802 411.419 912.739 410.973 912.764C410.527 912.79 410.091 912.902 409.689 913.096C409.287 913.29 408.927 913.561 408.63 913.894Z" fill="white" fill-opacity="0.24"/>
  <path d="M387 894.886L359.516 897.704L335.927 920.705" stroke="#999999" stroke-width="0.904074" stroke-miterlimit="10"/>
  <path d="M333.343 917.767C332.789 918.307 332.409 919 332.248 919.756C332.088 920.513 332.156 921.3 332.443 922.018C332.73 922.736 333.224 923.353 333.862 923.79C334.5 924.228 335.253 924.466 336.026 924.476C336.799 924.485 337.558 924.265 338.206 923.843C338.854 923.422 339.363 922.817 339.668 922.106C339.972 921.396 340.059 920.61 339.918 919.85C339.776 919.09 339.413 918.389 338.873 917.835C338.514 917.468 338.087 917.174 337.615 916.972C337.143 916.769 336.635 916.662 336.122 916.656C335.608 916.65 335.099 916.744 334.622 916.935C334.145 917.126 333.71 917.409 333.343 917.767Z" fill="white" fill-opacity="0.24"/>
  <path d="M438.336 855.928H351.771L285.525 915.815" stroke="#999999" stroke-width="0.904074" stroke-miterlimit="10"/>
  <path d="M287.174 919.334C289.157 918.478 290.07 916.177 289.214 914.194C288.358 912.212 286.057 911.298 284.074 912.154C282.092 913.01 281.178 915.311 282.034 917.294C282.89 919.276 285.191 920.19 287.174 919.334Z" fill="white" fill-opacity="0.24"/>
  <path d="M367.321 789.426L226.526 906.91" stroke="#999999" stroke-width="0.904074" stroke-miterlimit="10"/>
  <path d="M224.206 903.784C223.611 904.279 223.176 904.939 222.957 905.681C222.737 906.423 222.743 907.213 222.973 907.952C223.203 908.691 223.647 909.345 224.249 909.831C224.851 910.317 225.584 910.614 226.354 910.684C227.125 910.754 227.899 910.593 228.578 910.223C229.258 909.852 229.812 909.288 230.171 908.603C230.53 907.917 230.677 907.141 230.594 906.371C230.511 905.602 230.202 904.874 229.706 904.281C229.042 903.487 228.09 902.989 227.059 902.896C226.028 902.802 225.002 903.122 224.206 903.784Z" fill="white" fill-opacity="0.24"/>
  <path d="M394.918 779.641L254.123 897.133" stroke="#999999" stroke-width="0.904074" stroke-miterlimit="10"/>
  <path d="M251.773 893.996C251.179 894.492 250.745 895.152 250.527 895.894C250.308 896.636 250.315 897.426 250.545 898.164C250.776 898.902 251.22 899.555 251.822 900.041C252.424 900.527 253.156 900.823 253.926 900.893C254.696 900.962 255.47 900.802 256.149 900.432C256.828 900.062 257.382 899.499 257.741 898.814C258.1 898.129 258.248 897.353 258.166 896.584C258.084 895.815 257.775 895.087 257.28 894.493C256.616 893.697 255.662 893.197 254.629 893.104C253.597 893.011 252.569 893.332 251.773 893.996Z" fill="white" fill-opacity="0.24"/>
  <path d="M465.172 767.413L433.183 772.302L366.937 832.19" stroke="#999999" stroke-width="0.904074" stroke-miterlimit="10"/>
  <path d="M364.465 829.159C363.892 829.677 363.485 830.354 363.296 831.104C363.107 831.854 363.144 832.643 363.404 833.372C363.663 834.1 364.133 834.736 364.754 835.197C365.374 835.659 366.118 835.926 366.89 835.965C367.662 836.004 368.429 835.813 369.093 835.416C369.757 835.019 370.288 834.435 370.62 833.736C370.951 833.037 371.068 832.256 370.956 831.491C370.843 830.726 370.506 830.011 369.988 829.437C369.292 828.668 368.32 828.207 367.284 828.154C366.249 828.102 365.235 828.463 364.465 829.159Z" fill="white" fill-opacity="0.24"/>
  <path d="M571.943 694.484L536.503 694.024V760.255L323.443 967.974" stroke="#999999" stroke-width="0.904074" stroke-miterlimit="10"/>
  <path d="M321.198 965.418C320.717 965.888 320.386 966.489 320.247 967.146C320.108 967.804 320.167 968.488 320.416 969.111C320.666 969.735 321.094 970.271 321.648 970.651C322.202 971.032 322.857 971.239 323.529 971.248C324.2 971.256 324.86 971.065 325.423 970.699C325.986 970.333 326.429 969.808 326.694 969.19C326.959 968.573 327.035 967.89 326.912 967.23C326.789 966.569 326.474 965.96 326.005 965.479C325.693 965.159 325.322 964.904 324.911 964.728C324.501 964.552 324.06 964.458 323.614 964.452C323.167 964.447 322.724 964.529 322.31 964.695C321.895 964.861 321.517 965.106 321.198 965.418Z" fill="white" fill-opacity="0.24"/>
  <path d="M795.121 630.586L822.108 673.228H875.411L981.971 777.121" stroke="#999999" stroke-width="0.904074" stroke-miterlimit="10"/>
  <path d="M795.121 645.271L820.857 684.237H874.152L980.72 788.13" stroke="#999999" stroke-width="0.904074" stroke-miterlimit="10"/>
  <path d="M161.802 176.343L307.298 284.953L334.91 305.573L324.739 264.468L143.284 129.007" stroke="#999999" stroke-width="0.904074" stroke-miterlimit="10"/>
  <path d="M159.911 179.168C159.372 178.766 158.965 178.214 158.74 177.581C158.515 176.947 158.483 176.262 158.647 175.61C158.812 174.958 159.167 174.37 159.666 173.92C160.165 173.47 160.786 173.178 161.451 173.081C162.116 172.984 162.795 173.087 163.402 173.376C164.009 173.664 164.516 174.127 164.86 174.704C165.204 175.282 165.369 175.948 165.335 176.619C165.3 177.29 165.067 177.936 164.665 178.475C164.125 179.195 163.322 179.673 162.431 179.803C161.54 179.933 160.634 179.704 159.911 179.168Z" fill="white" fill-opacity="0.24"/>
  <path d="M145.454 126.385C144.915 125.984 144.269 125.75 143.598 125.716C142.927 125.681 142.26 125.846 141.683 126.19C141.106 126.534 140.643 127.042 140.354 127.649C140.065 128.255 139.963 128.934 140.06 129.599C140.157 130.264 140.449 130.886 140.899 131.385C141.349 131.884 141.937 132.238 142.589 132.403C143.24 132.568 143.926 132.536 144.559 132.311C145.193 132.086 145.745 131.678 146.147 131.139C146.414 130.782 146.608 130.375 146.718 129.943C146.828 129.51 146.852 129.06 146.788 128.618C146.723 128.177 146.572 127.752 146.343 127.369C146.114 126.986 145.812 126.651 145.454 126.385Z" fill="white" fill-opacity="0.24"/>
  <path d="M461.42 178.325V298.175L491.247 342.776V398.505" stroke="#999999" stroke-width="0.904074" stroke-miterlimit="10"/>
  <path d="M461.42 181.886C463.296 181.886 464.818 180.365 464.818 178.489C464.818 176.612 463.296 175.091 461.42 175.091C459.543 175.091 458.022 176.612 458.022 178.489C458.022 180.365 459.543 181.886 461.42 181.886Z" fill="white" fill-opacity="0.24"/>
  <path d="M378.042 -1.75977V118.09L407.869 162.691L401.457 319.013" stroke="#999999" stroke-width="0.904074" stroke-miterlimit="10"/>
  <path d="M378.042 1.81028C379.918 1.81028 381.439 0.289023 381.439 -1.58754C381.439 -3.4641 379.918 -4.98535 378.042 -4.98535C376.165 -4.98535 374.644 -3.4641 374.644 -1.58754C374.644 0.289023 376.165 1.81028 378.042 1.81028Z" fill="white" fill-opacity="0.24"/>
  <path d="M401.457 26.4836V130.181L423.592 163.428L417.181 319.743" stroke="#999999" stroke-width="0.904074" stroke-miterlimit="10"/>
  <path d="M398.059 26.6594C398.058 25.9856 398.256 25.3265 398.63 24.7655C399.003 24.2045 399.534 23.7669 400.156 23.508C400.778 23.2491 401.463 23.1805 402.124 23.3111C402.786 23.4416 403.393 23.7654 403.87 24.2413C404.347 24.7173 404.672 25.324 404.804 25.9848C404.936 26.6455 404.869 27.3306 404.612 27.9533C404.354 28.576 403.918 29.1083 403.357 29.4828C402.797 29.8573 402.139 30.0573 401.465 30.0573C400.563 30.0573 399.698 29.6995 399.059 29.0625C398.421 28.4255 398.061 27.5613 398.059 26.6594Z" fill="white" fill-opacity="0.24"/>
  <path d="M427.397 307.789L465.044 341.834L478.921 395.898" stroke="#999999" stroke-width="0.904074" stroke-miterlimit="10"/>
  <path d="M425.249 310.425C424.751 309.974 424.397 309.386 424.233 308.734C424.069 308.082 424.102 307.397 424.328 306.764C424.554 306.131 424.962 305.579 425.501 305.178C426.041 304.777 426.687 304.545 427.358 304.511C428.029 304.478 428.695 304.644 429.272 304.989C429.849 305.333 430.31 305.842 430.598 306.449C430.886 307.056 430.988 307.735 430.89 308.4C430.792 309.065 430.499 309.686 430.049 310.184C429.443 310.851 428.598 311.25 427.699 311.295C426.799 311.341 425.919 311.028 425.249 310.425Z" fill="white" fill-opacity="0.24"/>
  <path d="M476.812 198.334V318.184" stroke="#999999" stroke-width="0.904074" stroke-miterlimit="10"/>
  <path d="M473.414 198.501C473.414 197.829 473.613 197.172 473.987 196.613C474.36 196.054 474.891 195.619 475.511 195.362C476.132 195.105 476.815 195.037 477.475 195.168C478.134 195.299 478.739 195.623 479.214 196.098C479.69 196.573 480.013 197.179 480.144 197.838C480.275 198.497 480.208 199.18 479.951 199.801C479.694 200.422 479.258 200.953 478.699 201.326C478.141 201.699 477.484 201.899 476.812 201.899C475.911 201.899 475.046 201.541 474.409 200.903C473.772 200.266 473.414 199.402 473.414 198.501Z" fill="white" fill-opacity="0.24"/>
  <path d="M562.119 287.621V407.471" stroke="#999999" stroke-width="0.904074" stroke-miterlimit="10"/>
  <path d="M558.713 287.824C558.713 287.15 558.913 286.492 559.287 285.932C559.662 285.372 560.193 284.935 560.816 284.678C561.438 284.42 562.123 284.352 562.783 284.484C563.444 284.615 564.05 284.94 564.527 285.416C565.003 285.892 565.327 286.499 565.459 287.159C565.59 287.82 565.523 288.505 565.265 289.127C565.007 289.749 564.571 290.281 564.011 290.655C563.451 291.029 562.792 291.229 562.119 291.229C561.671 291.23 561.228 291.143 560.814 290.972C560.401 290.801 560.025 290.55 559.709 290.234C559.392 289.918 559.141 289.542 558.971 289.128C558.8 288.715 558.712 288.271 558.713 287.824Z" fill="white" fill-opacity="0.24"/>
  <path d="M440.897 67.0259V186.876" stroke="#999999" stroke-width="0.904074" stroke-miterlimit="10"/>
  <path d="M440.897 70.5901C442.774 70.5901 444.295 69.0688 444.295 67.1922C444.295 65.3157 442.774 63.7944 440.897 63.7944C439.021 63.7944 437.5 65.3157 437.5 67.1922C437.5 69.0688 439.021 70.5901 440.897 70.5901Z" fill="white" fill-opacity="0.24"/>
  <path d="M451.159 94.5396V214.39" stroke="#999999" stroke-width="0.904074" stroke-miterlimit="10"/>
  <path d="M447.761 94.7059C447.761 94.0339 447.96 93.377 448.334 92.8182C448.707 92.2594 449.237 91.8239 449.858 91.5667C450.479 91.3095 451.162 91.2423 451.822 91.3734C452.481 91.5045 453.086 91.8281 453.561 92.3033C454.037 92.7785 454.36 93.3839 454.491 94.043C454.622 94.7021 454.555 95.3853 454.298 96.0062C454.041 96.627 453.605 97.1577 453.046 97.5311C452.488 97.9044 451.831 98.1037 451.159 98.1037C450.258 98.1037 449.393 97.7457 448.756 97.1085C448.119 96.4713 447.761 95.6071 447.761 94.7059Z" fill="white" fill-opacity="0.24"/>
  <path d="M464.961 266.479L445.101 244.193V212.287" stroke="#999999" stroke-width="0.904074" stroke-miterlimit="10"/>
  <path d="M448.499 212.484C448.498 211.812 448.297 211.156 447.923 210.598C447.549 210.041 447.017 209.606 446.396 209.35C445.775 209.094 445.093 209.028 444.434 209.16C443.775 209.292 443.171 209.616 442.696 210.092C442.222 210.567 441.899 211.173 441.768 211.831C441.638 212.49 441.706 213.173 441.963 213.794C442.22 214.414 442.656 214.944 443.214 215.317C443.773 215.69 444.43 215.889 445.101 215.889C445.548 215.889 445.991 215.801 446.403 215.63C446.816 215.459 447.191 215.208 447.507 214.892C447.822 214.575 448.072 214.2 448.243 213.787C448.413 213.374 448.5 212.931 448.499 212.484Z" fill="white" fill-opacity="0.24"/>
  <path d="M373.883 294L343.604 293.977L318.878 273.003" stroke="#999999" stroke-width="0.904074" stroke-miterlimit="10"/>
  <path d="M321.206 270.493C320.692 270.056 320.061 269.781 319.392 269.703C318.722 269.625 318.045 269.747 317.445 270.055C316.845 270.362 316.35 270.84 316.022 271.429C315.694 272.018 315.548 272.691 315.603 273.363C315.658 274.035 315.911 274.675 316.33 275.203C316.75 275.731 317.316 276.123 317.958 276.328C318.6 276.534 319.288 276.545 319.936 276.359C320.584 276.173 321.162 275.799 321.597 275.285C322.179 274.597 322.465 273.706 322.391 272.808C322.318 271.91 321.892 271.078 321.206 270.493Z" fill="white" fill-opacity="0.24"/>
  <path d="M241.007 318.689L326.555 368.677L353.632 401.992" stroke="#999999" stroke-width="0.904074" stroke-miterlimit="10"/>
  <path d="M239.44 321.724C238.86 321.384 238.395 320.88 238.102 320.276C237.809 319.672 237.702 318.994 237.793 318.329C237.885 317.664 238.172 317.041 238.618 316.539C239.064 316.036 239.648 315.677 240.298 315.507C240.947 315.337 241.633 315.363 242.268 315.582C242.902 315.801 243.458 316.203 243.864 316.738C244.271 317.272 244.51 317.915 244.551 318.586C244.592 319.256 244.433 319.923 244.096 320.504C243.87 320.89 243.571 321.228 243.215 321.499C242.859 321.769 242.453 321.967 242.021 322.081C241.588 322.194 241.138 322.221 240.695 322.16C240.252 322.099 239.825 321.951 239.44 321.724Z" fill="white" fill-opacity="0.24"/>
  <path d="M274.902 355.991L380.4 417.634L434.976 415.615L484.007 444.267" stroke="#999999" stroke-width="0.904074" stroke-miterlimit="10"/>
  <path d="M273.342 359.012C272.762 358.673 272.296 358.169 272.002 357.565C271.707 356.961 271.599 356.283 271.69 355.617C271.781 354.951 272.068 354.328 272.513 353.825C272.959 353.322 273.544 352.962 274.194 352.792C274.844 352.621 275.53 352.647 276.165 352.866C276.8 353.085 277.356 353.488 277.762 354.023C278.169 354.558 278.407 355.202 278.448 355.872C278.489 356.543 278.33 357.211 277.991 357.791C277.766 358.177 277.467 358.514 277.112 358.784C276.756 359.054 276.351 359.251 275.92 359.364C275.488 359.478 275.038 359.505 274.596 359.444C274.154 359.384 273.728 359.237 273.342 359.012Z" fill="white" fill-opacity="0.24"/>
  <path d="M332.198 390.223L302.386 395.376L274.254 378.937" stroke="#999999" stroke-width="0.904074" stroke-miterlimit="10"/>
  <path d="M276.122 376.09C275.542 375.751 274.874 375.592 274.204 375.633C273.533 375.673 272.889 375.912 272.354 376.318C271.819 376.725 271.416 377.281 271.197 377.916C270.978 378.551 270.952 379.237 271.123 379.887C271.293 380.537 271.653 381.122 272.156 381.568C272.659 382.013 273.283 382.3 273.948 382.391C274.614 382.482 275.292 382.374 275.896 382.079C276.5 381.785 277.004 381.319 277.343 380.738C277.568 380.353 277.715 379.927 277.776 379.485C277.836 379.043 277.809 378.593 277.696 378.161C277.582 377.73 277.385 377.325 277.115 376.969C276.845 376.614 276.508 376.315 276.122 376.09Z" fill="white" fill-opacity="0.24"/>
  <path d="M341.366 249.09L338.406 221.689L314.229 198.123" stroke="#999999" stroke-width="0.904074" stroke-miterlimit="10"/>
  <path d="M317.1 195.457C316.545 194.918 315.844 194.555 315.083 194.415C314.323 194.274 313.538 194.362 312.827 194.668C312.117 194.974 311.513 195.483 311.092 196.132C310.672 196.781 310.453 197.54 310.463 198.313C310.474 199.086 310.713 199.839 311.152 200.476C311.59 201.113 312.207 201.606 312.926 201.892C313.644 202.178 314.431 202.245 315.188 202.084C315.944 201.923 316.635 201.541 317.175 200.987C317.534 200.619 317.817 200.185 318.008 199.707C318.198 199.23 318.293 198.72 318.286 198.206C318.279 197.693 318.17 197.185 317.967 196.713C317.763 196.242 317.469 195.815 317.1 195.457Z" fill="white" fill-opacity="0.24"/>
  <path d="M382.216 300.255V213.968L319.36 147.88" stroke="#999999" stroke-width="0.904074" stroke-miterlimit="10"/>
  <path d="M322.328 145.324C321.795 144.763 321.108 144.373 320.353 144.203C319.598 144.033 318.81 144.091 318.088 144.369C317.366 144.647 316.743 145.133 316.297 145.765C315.851 146.398 315.603 147.148 315.584 147.922C315.565 148.695 315.776 149.457 316.19 150.11C316.605 150.764 317.203 151.28 317.911 151.593C318.618 151.906 319.403 152.002 320.165 151.87C320.927 151.737 321.633 151.381 322.193 150.847C322.564 150.493 322.863 150.07 323.071 149.601C323.279 149.132 323.393 148.627 323.405 148.114C323.418 147.601 323.329 147.09 323.144 146.612C322.96 146.133 322.682 145.696 322.328 145.324Z" fill="white" fill-opacity="0.24"/>
  <path d="M267.149 183.364C266.668 182.893 266.057 182.575 265.394 182.451C264.732 182.326 264.048 182.402 263.428 182.667C262.808 182.932 262.281 183.375 261.913 183.94C261.546 184.505 261.354 185.166 261.362 185.84C261.371 186.514 261.579 187.171 261.961 187.726C262.343 188.282 262.881 188.711 263.507 188.961C264.133 189.211 264.819 189.269 265.478 189.128C266.137 188.987 266.74 188.654 267.21 188.171C267.838 187.525 268.184 186.656 268.172 185.755C268.161 184.854 267.793 183.994 267.149 183.364Z" fill="white" fill-opacity="0.24"/>
  <path d="M560.657 455.085L533.06 411.486H478.56L371.917 307.518" stroke="#999999" stroke-width="0.904074" stroke-miterlimit="10"/>
  <path d="M374.418 305.195C373.937 304.726 373.327 304.41 372.667 304.288C372.006 304.165 371.324 304.241 370.706 304.506C370.089 304.771 369.564 305.213 369.198 305.776C368.832 306.34 368.641 306.999 368.649 307.671C368.657 308.343 368.865 308.997 369.245 309.551C369.625 310.105 370.161 310.534 370.785 310.783C371.409 311.033 372.093 311.092 372.75 310.952C373.407 310.813 374.009 310.482 374.478 310.001C374.79 309.682 375.036 309.304 375.201 308.89C375.367 308.475 375.45 308.032 375.444 307.586C375.438 307.139 375.345 306.698 375.169 306.288C374.993 305.878 374.738 305.506 374.418 305.195Z" fill="white" fill-opacity="0.24"/>
  <path d="M550.614 468.539L523.025 424.94H468.524L361.881 320.964" stroke="#999999" stroke-width="0.904074" stroke-miterlimit="10"/>
  <path d="M364.383 318.653C363.901 318.184 363.292 317.868 362.631 317.746C361.971 317.623 361.289 317.699 360.671 317.964C360.054 318.229 359.529 318.671 359.162 319.235C358.796 319.798 358.605 320.457 358.614 321.129C358.622 321.801 358.83 322.455 359.21 323.009C359.59 323.563 360.126 323.992 360.75 324.242C361.374 324.491 362.058 324.55 362.715 324.411C363.372 324.272 363.974 323.941 364.443 323.46C364.755 323.14 365.001 322.763 365.166 322.348C365.332 321.933 365.414 321.49 365.409 321.044C365.403 320.598 365.31 320.157 365.134 319.746C364.958 319.336 364.702 318.965 364.383 318.653Z" fill="white" fill-opacity="0.24"/>
  <path d="M750.897 339.755L791.354 287.846L795.069 48.394" stroke="#999999" stroke-width="0.904074" stroke-miterlimit="10"/>
  <path d="M798.466 48.6127C798.477 47.9408 798.288 47.281 797.923 46.7165C797.558 46.1521 797.034 45.7084 796.418 45.4417C795.801 45.175 795.119 45.0972 794.458 45.218C793.797 45.3389 793.186 45.653 792.704 46.1208C792.221 46.5885 791.889 47.1888 791.747 47.8458C791.606 48.5028 791.663 49.1868 791.91 49.8116C792.157 50.4364 792.585 50.9737 793.137 51.3557C793.69 51.7377 794.344 51.9473 795.016 51.9578C795.462 51.9648 795.905 51.8838 796.32 51.7195C796.735 51.5551 797.114 51.3106 797.434 51C797.755 50.6894 798.011 50.3187 798.188 49.9091C798.365 49.4995 798.46 49.0589 798.466 48.6127Z" fill="white" fill-opacity="0.24"/>
  <path d="M769.717 345.872L810.174 293.955L813.888 54.5034" stroke="#999999" stroke-width="0.904074" stroke-miterlimit="10"/>
  <path d="M817.286 54.7311C817.297 54.0592 817.107 53.3994 816.743 52.8349C816.378 52.2705 815.854 51.8268 815.237 51.5601C814.621 51.2934 813.939 51.2156 813.278 51.3364C812.617 51.4573 812.006 51.7714 811.524 52.2392C811.041 52.7069 810.708 53.3073 810.567 53.9642C810.426 54.6212 810.482 55.3052 810.73 55.93C810.977 56.5548 811.404 57.0921 811.957 57.4741C812.51 57.8562 813.164 58.0657 813.836 58.0763C814.282 58.0832 814.725 58.0022 815.14 57.8379C815.555 57.6735 815.933 57.429 816.254 57.1184C816.574 56.8078 816.83 56.4371 817.008 56.0275C817.185 55.6179 817.279 55.1774 817.286 54.7311Z" fill="white" fill-opacity="0.24"/>
  <path d="M812.999 232.689L869.466 161.358V91.307L912.674 34.2825" stroke="#999999" stroke-width="0.904074" stroke-miterlimit="10"/>
  <path d="M915.28 36.4685C915.686 35.9329 915.924 35.289 915.964 34.6182C916.004 33.9475 915.844 33.28 915.504 32.7001C915.165 32.1202 914.661 31.6539 914.057 31.3603C913.452 31.0667 912.774 30.9589 912.109 31.0505C911.443 31.1422 910.82 31.4291 910.317 31.8751C909.814 32.3211 909.455 32.9061 909.285 33.5562C909.115 34.2062 909.141 34.8922 909.361 35.5272C909.581 36.1623 909.984 36.7179 910.519 37.124C911.238 37.6667 912.143 37.9025 913.035 37.7796C913.927 37.6568 914.735 37.1853 915.28 36.4685Z" fill="white" fill-opacity="0.24"/>
  <path d="M888.716 116.236L912.53 85.3691" stroke="#999999" stroke-width="0.904074" stroke-miterlimit="10"/>
  <path d="M915.506 87.9178C915.979 87.3054 916.259 86.5667 916.311 85.7952C916.364 85.0237 916.186 84.2539 915.801 83.5832C915.416 82.9125 914.841 82.3711 914.148 82.0274C913.455 81.6836 912.676 81.553 911.909 81.6521C911.142 81.7511 910.422 82.0754 909.839 82.5838C909.256 83.0922 908.838 83.7619 908.636 84.5084C908.434 85.2548 908.457 86.0445 908.704 86.7774C908.951 87.5103 909.409 88.1536 910.022 88.6259C910.428 88.9396 910.893 89.1701 911.388 89.3043C911.884 89.4385 912.401 89.4737 912.911 89.4079C913.42 89.3422 913.911 89.1767 914.357 88.9211C914.802 88.6654 915.193 88.3245 915.506 87.9178Z" fill="white" fill-opacity="0.24"/>
  <path d="M910.428 380.416H974.241L1023.52 331.506L1171.14 252.776" stroke="#999999" stroke-width="0.904074" stroke-miterlimit="10"/>
  <path d="M914.617 370.785H966.963L1017.67 323.962L1104.81 275.104" stroke="#999999" stroke-width="0.904074" stroke-miterlimit="10"/>
  <path d="M1106.33 278.158C1106.92 277.83 1107.4 277.335 1107.7 276.736C1108.01 276.137 1108.13 275.461 1108.05 274.794C1107.97 274.126 1107.69 273.498 1107.26 272.987C1106.82 272.476 1106.24 272.106 1105.59 271.924C1104.95 271.741 1104.26 271.755 1103.62 271.963C1102.98 272.171 1102.42 272.563 1102 273.091C1101.59 273.619 1101.34 274.258 1101.29 274.928C1101.23 275.598 1101.38 276.268 1101.71 276.855C1101.93 277.244 1102.22 277.587 1102.57 277.863C1102.92 278.139 1103.32 278.344 1103.75 278.465C1104.18 278.586 1104.63 278.621 1105.07 278.568C1105.52 278.516 1105.94 278.376 1106.33 278.158Z" fill="white" fill-opacity="0.24"/>
  <path d="M1048.17 305.505V281.758L1143.21 226.157" stroke="#999999" stroke-width="0.904074" stroke-miterlimit="10"/>
  <path d="M1144.78 229.178C1145.36 228.839 1145.83 228.335 1146.12 227.731C1146.41 227.127 1146.52 226.449 1146.43 225.783C1146.34 225.117 1146.05 224.494 1145.61 223.991C1145.16 223.488 1144.58 223.128 1143.93 222.958C1143.28 222.787 1142.59 222.813 1141.96 223.032C1141.32 223.251 1140.77 223.654 1140.36 224.189C1139.95 224.724 1139.71 225.368 1139.67 226.038C1139.63 226.709 1139.79 227.377 1140.13 227.957C1140.36 228.343 1140.65 228.681 1141.01 228.952C1141.36 229.222 1141.77 229.42 1142.2 229.533C1142.63 229.647 1143.08 229.674 1143.53 229.613C1143.97 229.552 1144.39 229.404 1144.78 229.178Z" fill="white" fill-opacity="0.24"/>
  <path d="M921.722 342.339L963.294 339.755L1001.42 310.358" stroke="#999999" stroke-width="0.904074" stroke-miterlimit="10"/>
  <path d="M1003.37 313.152C1003.9 312.742 1004.3 312.183 1004.51 311.546C1004.73 310.909 1004.75 310.223 1004.57 309.575C1004.4 308.926 1004.03 308.344 1003.53 307.903C1003.02 307.461 1002.39 307.179 1001.73 307.093C1001.06 307.006 1000.38 307.119 999.783 307.418C999.181 307.716 998.681 308.186 998.346 308.768C998.011 309.351 997.856 310.019 997.901 310.69C997.946 311.36 998.189 312.002 998.599 312.534C999.15 313.248 999.961 313.713 1000.86 313.829C1001.75 313.945 1002.65 313.701 1003.37 313.152Z" fill="white" fill-opacity="0.24"/>
  <path d="M916.049 403.417L990.432 399.319L1035.73 354.364L1144.65 297.294" stroke="#999999" stroke-width="0.904074" stroke-miterlimit="10"/>
  <path d="M1146.08 300.375C1146.68 300.063 1147.17 299.581 1147.49 298.991C1147.81 298.401 1147.95 297.729 1147.89 297.06C1147.83 296.39 1147.57 295.754 1147.15 295.231C1146.73 294.709 1146.16 294.323 1145.52 294.123C1144.87 293.923 1144.19 293.917 1143.54 294.107C1142.9 294.297 1142.33 294.674 1141.9 295.19C1141.46 295.706 1141.2 296.338 1141.13 297.006C1141.05 297.674 1141.18 298.349 1141.49 298.944C1141.7 299.34 1141.98 299.691 1142.33 299.978C1142.67 300.264 1143.07 300.48 1143.49 300.613C1143.92 300.746 1144.37 300.793 1144.81 300.753C1145.26 300.712 1145.69 300.584 1146.08 300.375Z" fill="white" fill-opacity="0.24"/>
  <path d="M1003.98 401.662L1046.03 362.561L1092.53 343.56" stroke="#999999" stroke-width="0.904074" stroke-miterlimit="10"/>
  <path d="M1093.66 346.769C1094.28 346.515 1094.82 346.082 1095.19 345.526C1095.57 344.969 1095.77 344.313 1095.78 343.641C1095.78 342.969 1095.58 342.311 1095.21 341.75C1094.84 341.189 1094.31 340.751 1093.69 340.491C1093.07 340.231 1092.39 340.16 1091.73 340.288C1091.07 340.416 1090.46 340.736 1089.99 341.209C1089.51 341.682 1089.18 342.286 1089.05 342.944C1088.91 343.603 1088.98 344.286 1089.23 344.908C1089.57 345.743 1090.23 346.407 1091.06 346.756C1091.89 347.105 1092.83 347.11 1093.66 346.769Z" fill="white" fill-opacity="0.24"/>
  <path d="M1023.52 383.807L1042.21 390.022L1143.09 341.165" stroke="#999999" stroke-width="0.904074" stroke-miterlimit="10"/>
  <path d="M1144.43 344.327C1145.03 344.037 1145.54 343.573 1145.88 342.994C1146.23 342.415 1146.39 341.748 1146.35 341.076C1146.32 340.404 1146.08 339.758 1145.68 339.22C1145.27 338.682 1144.72 338.276 1144.08 338.053C1143.45 337.831 1142.76 337.802 1142.11 337.971C1141.46 338.139 1140.87 338.498 1140.42 339C1139.98 339.503 1139.69 340.127 1139.6 340.793C1139.5 341.46 1139.61 342.139 1139.91 342.745C1140.3 343.552 1140.99 344.171 1141.84 344.467C1142.69 344.764 1143.62 344.713 1144.43 344.327Z" fill="white" fill-opacity="0.24"/>
  </g>
  <path fill-rule="evenodd" clip-rule="evenodd" d="M708.5 593C733.077 593 753 573.077 753 548.5C753 523.923 733.077 504 708.5 504C683.923 504 664 523.923 664 548.5C664 573.077 683.923 593 708.5 593ZM684.169 529.131H695.147V547.149L722.013 540.517V529.131H732.991V567.709H722.013V549.609L695.147 556.242V567.709H684.169V529.131Z" fill="white"/>
  </svg>
  